<?xml version="1.0" encoding="UTF-8"?>
<svg width="43px" height="43px" viewBox="0 0 43 43" version="1.1" xmlns="http://www.w3.org/2000/svg" xmlns:xlink="http://www.w3.org/1999/xlink">
    <!-- Generator: sketchtool 64 (101010) - https://sketch.com -->
    <title>0883A8FF-DE60-4433-83FB-8BD08C98894D@1x</title>
    <desc>Created with sketchtool.</desc>
    <g id="Style-Guide" stroke="none" stroke-width="1" fill="none" fill-rule="evenodd">
        <g id="Aris-Brand-Design-Style-Guide" transform="translate(-891.000000, -9191.000000)">
            <g id="Group" transform="translate(891.000000, 9191.000000)">
                <rect id="Rectangle-Copy-49" fill="#0067A5" x="0" y="0" width="43" height="43" rx="8"></rect>
                <g transform="translate(10.000000, 10.000000)">
                    <polygon id="Path" points="0 0 24 0 24 24 0 24"></polygon>
                    <path d="M20,22 L6,22 C4.34314575,22 3,20.6568542 3,19 L3,5 C3,3.34314575 4.34314575,2 6,2 L20,2 C20.5522847,2 21,2.44771525 21,3 L21,21 C21,21.5522847 20.5522847,22 20,22 Z M19,20 L19,18 L6,18 C5.44771525,18 5,18.4477153 5,19 C5,19.5522847 5.44771525,20 6,20 L19,20 Z M12,10 C13.1045695,10 14,9.1045695 14,8 C14,6.8954305 13.1045695,6 12,6 C10.8954305,6 10,6.8954305 10,8 C10,9.1045695 10.8954305,10 12,10 Z M9,14 L15,14 C15,12.3431458 13.6568542,11 12,11 C10.3431458,11 9,12.3431458 9,14 L9,14 Z" id="Shape" fill="#FFFFFF" fill-rule="nonzero"></path>
                </g>
            </g>
        </g>
    </g>
</svg>