<?xml version="1.0" encoding="UTF-8"?>
<svg width="43px" height="43px" viewBox="0 0 43 43" version="1.1" xmlns="http://www.w3.org/2000/svg" xmlns:xlink="http://www.w3.org/1999/xlink">
    <!-- Generator: sketchtool 64 (101010) - https://sketch.com -->
    <title>CE737CB7-0BC3-4BCC-83E5-877850D21912@1x</title>
    <desc>Created with sketchtool.</desc>
    <g id="Style-Guide" stroke="none" stroke-width="1" fill="none" fill-rule="evenodd">
        <g id="Aris-Brand-Design-Style-Guide" transform="translate(-830.000000, -9191.000000)">
            <g id="Group" transform="translate(830.000000, 9191.000000)">
                <rect id="Rectangle-Copy-49" fill="#0067A5" x="0" y="0" width="43" height="43" rx="8"></rect>
                <g transform="translate(10.000000, 10.000000)">
                    <polygon id="Path" points="0 0 24 0 24 24 0 24"></polygon>
                    <path d="M20,14.5 L20,23.5 L16.667,21 L14,21 L14,17 L16.667,17 L20,14.5 Z M21,3 C21.5522847,3 22,3.44771525 22,4 L22,14.529 C19.9578085,12.6991035 16.9348947,12.4865382 14.6567163,14.0126347 C12.3785379,15.5387312 11.4248456,18.4151287 12.34,21 L3.002,21 C2.44971525,21 2.002,20.5522847 2.002,20 L2.002,4 C2.002,3.44771525 2.44971525,3 3.002,3 L21.002,3 L21,3 Z M21,16.9999796 C22.0788292,16.9951722 22.9670631,17.8468587 23.0075417,18.924939 C23.0480203,20.0030193 22.2261537,20.9189148 21.15,20.995 L21,21 L21,16.9999796 Z M5.647,6.238 L4.353,7.762 L12.073,14.317 L19.654,7.757 L18.346,6.244 L12.06,11.682 L5.647,6.238 Z" id="Shape" fill="#FFFFFF" fill-rule="nonzero"></path>
                </g>
            </g>
        </g>
    </g>
</svg>