<?xml version="1.0" encoding="UTF-8"?>
<svg width="43px" height="43px" viewBox="0 0 43 43" version="1.1" xmlns="http://www.w3.org/2000/svg" xmlns:xlink="http://www.w3.org/1999/xlink">
    <!-- Generator: sketchtool 64 (101010) - https://sketch.com -->
    <title>B415C501-3490-4A62-AEE4-66F634EF7D3E@1x</title>
    <desc>Created with sketchtool.</desc>
    <g id="Style-Guide" stroke="none" stroke-width="1" fill="none" fill-rule="evenodd">
        <g id="Aris-Brand-Design-Style-Guide" transform="translate(-769.000000, -9191.000000)">
            <g id="Group" transform="translate(769.000000, 9191.000000)">
                <rect id="Rectangle-Copy-49" fill="#0067A5" x="0" y="0" width="43" height="43" rx="8"></rect>
                <g transform="translate(10.000000, 10.000000)">
                    <polygon id="Path" points="0 0 24 0 24 24 0 24"></polygon>
                    <path d="M3,3 L21,3 C21.5522847,3 22,3.44771525 22,4 L22,20 C22,20.5522847 21.5522847,21 21,21 L3,21 C2.44771525,21 2,20.5522847 2,20 L2,4 C2,3.44771525 2.44771525,3 3,3 Z M12.06,11.683 L5.648,6.238 L4.353,7.762 L12.073,14.317 L19.654,7.757 L18.346,6.244 L12.061,11.683 L12.06,11.683 Z" id="Shape" fill="#FFFFFF" fill-rule="nonzero"></path>
                </g>
            </g>
        </g>
    </g>
</svg>