<?xml version="1.0" encoding="UTF-8"?>
<svg width="259px" height="58px" viewBox="0 0 259 58" version="1.1" xmlns="http://www.w3.org/2000/svg" xmlns:xlink="http://www.w3.org/1999/xlink">
    <!-- Generator: sketchtool 64 (101010) - https://sketch.com -->
    <title>CDEBD5B0-67D4-4394-92E6-F4E6BCDD57B7</title>
    <desc>Created with sketchtool.</desc>
    <defs>
        <polygon id="path-1" points="0.216666667 0.684825 7.95708925 0.684825 7.95708925 15.057525 0.216666667 15.057525"></polygon>
    </defs>
    <g id="Design" stroke="none" stroke-width="1" fill="none" fill-rule="evenodd">
        <g id="Home_v2" transform="translate(-21.000000, -114.000000)">
            <g id="Group" transform="translate(21.000000, 114.000000)">
                <g id="Group-272" transform="translate(2.000000, 33.000000)" fill="#FFFFFE">
                    <path d="M19.7478889,17.2084187 C19.8156667,17.1894187 19.9101111,17.0421687 19.9278889,16.9637937 C19.1778889,16.8474187 18.4245556,15.8237937 18.2156667,15.5387937 C18.0056667,15.2537937 17.5312222,13.9226062 16.3523333,12.2636687 C14.9378889,10.2734187 13.0856667,8.10266875 11.6412222,6.71566875 C12.1456667,8.75579375 12.4456667,10.8374812 13.4101111,12.6876062 C14.249,14.2966687 15.0601111,15.5091062 17.259,16.4080437 C15.4656667,15.8095437 14.5323333,15.5542312 12.9256667,15.1682937 C11.1078889,14.8547937 7.639,13.6934187 7.14788889,13.4725437 C6.62122222,13.2350437 4.92677778,12.3634187 4.92677778,12.3634187 C6.209,14.7704812 8.61566667,16.8664187 11.129,17.7950437 C13.9567778,18.9196062 17.009,17.7463562 19.7478889,17.2084187" id="Fill-268"></path>
                    <path d="M12.2975556,13.8881687 C12.2975556,13.8881687 12.4397778,13.8679812 12.5208889,13.8347312 C12.2508889,13.2979812 12.0531111,12.9785437 11.8475556,12.0748562 C11.5475556,10.7614812 11.3231111,8.20954375 10.7231111,6.60404375 C9.55755556,3.48091875 7.56866667,0.49198125 7.56866667,0.49198125 C8.01977778,4.81923125 7.24755556,8.34491875 10.8642222,12.5961687 C10.5053333,12.3622312 10.3897778,12.3277937 9.652,11.4419187 C7.54311111,8.91254375 4.03755556,7.14673125 1.972,4.59479375 C1.43311111,4.05685625 1.11866667,3.17691875 0.489777778,2.73754375 C0.984222222,4.98666875 2.03977778,7.56235625 3.34088889,9.37091875 C5.40088889,12.2042937 7.87422222,12.9215437 10.4231111,13.3454812 C11.5653333,13.5354812 11.7797778,13.7183562 12.2975556,13.8881687" id="Fill-270"></path>
                </g>
                <g id="Group-278" transform="translate(0.000000, 17.000000)">
                    <path d="M9.042,22.964465 C9.10311111,22.975965 9.20866667,22.988615 9.31088889,22.917315 C9.04755556,22.156015 8.72977778,21.124465 8.76533333,20.359715 C8.82311111,19.080915 9.00977778,17.437565 9.03311111,15.712565 C9.06533333,13.419465 8.832,10.971115 7.82977778,8.949415 C7.15644444,11.932515 6.50533333,15.509015 7.26866667,18.633565 C7.49311111,19.390265 7.77533333,19.934215 7.86533333,20.692065 C7.23422222,19.446615 6.01088889,17.179965 4.932,15.946015 C3.80977778,14.664915 3.08533333,13.936965 2.30311111,12.770865 C1.27422222,11.236765 0.810888889,9.969465 0.810888889,9.969465 C0.810888889,9.969465 0.735333333,10.982615 0.960888889,12.267165 C1.132,13.246965 1.74422222,14.961615 2.09422222,15.760865 C3.35088889,19.026865 5.87422222,19.843365 9.042,22.964465" id="Fill-273" fill="#FFFFFE"></path>
                    <g id="Group-277">
                        <mask id="mask-2" fill="white">
                            <use xlink:href="#path-1"></use>
                        </mask>
                        <g id="Clip-276"></g>
                        <path d="M5.316,15.057525 L5.54044444,15.057525 C5.36044444,14.489425 5.36044444,13.637275 5.54044444,13.022025 C6.32488889,11.351075 7.006,9.431725 7.43711111,7.741225 C7.78266667,6.330175 7.946,5.134175 7.95488889,4.363675 C7.96266667,3.604675 7.95266667,3.248175 7.87822222,2.936525 C7.87822222,2.936525 4.16155556,8.094275 4.64266667,12.358475 C4.01377778,8.808425 3.02822222,6.663675 1.54711111,3.491975 C1.27711111,2.922725 0.863777778,1.415075 0.650444444,0.684825 C0.293777778,2.623725 -0.0395555556,3.730025 0.500444444,6.452075 C0.734888889,7.633125 1.31155556,8.936075 2.06933333,10.194175 C3.05822222,11.837525 4.426,13.394625 5.316,15.057525" id="Fill-275" fill="#FFFFFE" mask="url(#mask-2)"></path>
                    </g>
                </g>
                <g id="Group-341" transform="translate(2.000000, 0.000000)" fill="#FFFFFE">
                    <path d="M2.18461322,26.2691899 C2.51293921,25.1940587 2.63181586,24.624137 2.94995242,23.9565793 C3.19789515,23.4354756 4.6402652,21.6587277 5.67505815,19.8354323 C6.67135771,18.1619969 7.46273656,16.1627297 7.95522555,14.6323424 C5.71355154,16.8291521 3.29299648,18.3549983 2.34990837,21.5179502 C2.9012696,19.1190567 2.43142379,17.3105203 2.11102291,14.8332909 C1.83704053,13.2915505 2.4665207,11.8746933 2.69521674,10.4725951 C1.82571894,11.4069488 1.32304053,12.5751748 0.910934802,13.6979887 C-0.989959471,18.000784 1.05132247,22.1832373 1.96610661,26.1091123 L2.18461322,26.2691899 Z" id="Fill-279"></path>
                    <path d="M3.41708106,18.0095258 C4.05675066,17.0740368 5.33042907,15.8683459 5.89877269,15.4596371 C6.4671163,15.049793 10.427407,11.1591124 11.1134952,8.4945581 C9.19222203,10.8321453 6.03576388,11.4860794 4.71000617,14.4310533 C5.24891366,11.8947882 5.89084758,8.45822843 6.12746872,7.74639396 L6.81355683,5.97078132 C5.0836185,7.29227308 3.87447313,9.34717005 3.38764493,11.4690499 C3.24952159,12.0696247 2.94157445,13.5954709 3.2382,16.0386412 C3.34575507,16.9185004 3.32764053,17.4100863 3.41708106,18.0095258" id="Fill-281"></path>
                    <path d="M6.11059956,11.4088788 C9.26705771,9.95909794 10.8215115,6.50096745 12.8344894,3.92950797 C9.72444978,4.95922706 7.32540573,7.32519684 6.36193877,10.1362051 C6.10154229,10.8957223 6.10154229,11.2124716 6.11059956,11.4088788" id="Fill-283"></path>
                    <path d="M48.2780727,48.7761019 C46.6421035,49.1462104 45.6899581,49.389165 43.8626542,49.9613573 C46.103196,49.1030689 46.930804,47.94279 47.7844515,46.4044556 C48.7671652,44.6356547 49.1622885,42.585299 49.6751564,40.6348498 C48.2033502,41.9608828 46.2277335,44.0963862 44.7864956,45.9980174 C43.5864075,47.5863052 43.1029758,48.8578436 42.8889978,49.1303161 C42.6750198,49.4027887 41.9074163,50.3814192 41.1443414,50.4938141 C41.1624559,50.568744 41.2575573,50.7083862 41.3266189,50.7276863 C44.1173899,51.2408429 47.2274295,52.3625215 50.1087731,51.2873903 C52.670848,50.399584 55.1219714,48.3946403 56.4284824,46.0945181 C56.4284824,46.0945181 54.7019405,46.9289652 54.1652974,47.1548903 C53.6660154,47.3660565 50.1302841,48.4763821 48.2780727,48.7761019" id="Fill-285"></path>
                    <path d="M59.4401374,38.6677117 C57.3343225,41.1074761 53.7634943,42.7945352 51.6135251,45.2138641 C50.8617718,46.0596643 50.7451595,46.0937234 50.3783401,46.3173779 C54.0646485,42.252996 53.2777982,38.8811485 53.7363225,34.7452426 C53.7363225,34.7452426 52.0120449,37.8105585 50.8096925,40.8361389 C49.9084943,43.105608 49.4624238,45.4817955 49.3763797,45.8189802 C49.178252,46.6068799 48.9654062,46.9872062 48.6914238,47.5014981 C48.7740714,47.5332865 48.9178555,47.5525867 48.9178555,47.5525867 C49.4465736,47.3891032 49.663948,47.2154019 50.8289392,47.0337536 C53.426111,46.6273154 55.946296,45.9427282 58.0441859,43.2350324 C59.3710758,41.5048319 60.4454943,39.0423614 60.9493048,36.8909637 C60.3096352,37.3121609 59.9892344,38.1534198 59.4401374,38.6677117" id="Fill-287"></path>
                    <path d="M61.3661656,30.9877329 C60.569126,32.1389293 59.8309586,32.8575756 58.6886106,34.1223023 C57.5881524,35.3416168 56.342778,37.5792975 55.6997119,38.8088297 C55.7914167,38.0595303 56.0778529,37.5236677 56.3065489,36.7766388 C57.0843419,33.6908874 56.4208969,30.1612329 55.735941,27.216259 C54.7147339,29.2121203 54.4758485,31.6280433 54.5086811,33.8918359 C54.5335885,35.5959245 54.722659,37.2182714 54.7826634,38.4795921 C54.8177604,39.2345681 54.4950952,40.2540694 54.2256414,41.0045042 C54.3298,41.0760282 54.4373551,41.0635399 54.5007559,41.0510516 C57.7274079,37.9709767 60.2985401,37.1649122 61.5790115,33.9395186 C61.9367736,33.1504836 62.5594608,31.4588833 62.7349454,30.4916058 C62.9636414,29.2234733 62.8866546,28.2221367 62.8866546,28.2221367 C62.8866546,28.2221367 62.4145445,29.4732398 61.3661656,30.9877329" id="Fill-289"></path>
                    <path d="M62.7795524,18.9571626 C62.6572793,19.3749538 62.6561471,20.1322003 62.3572573,20.8156523 C60.9590414,24.011528 59.6230943,27.0757086 58.9822925,30.5815218 C59.4725172,26.3706859 55.7114863,21.2743144 55.7114863,21.2743144 C55.6367639,21.5819812 55.5994026,21.9384661 55.6084599,22.6889009 C55.616385,23.4495534 55.7839445,24.6291323 56.1349137,26.0232834 C56.5741912,27.6921777 57.2682044,29.586997 58.0675084,31.2354558 C58.2509181,31.8428425 58.2509181,32.6852367 58.0675084,33.246076 L58.2962044,33.246076 C59.2041956,31.6044291 60.5978828,30.0672299 61.605504,28.444883 C62.376504,27.2028624 62.9063542,25.9222416 63.1452396,24.7574215 C63.8335921,21.3957917 63.2029797,20.8156523 62.7795524,18.9571626" id="Fill-291"></path>
                    <path d="M59.1663815,14.9412581 C58.8459806,17.4184875 58.5482229,19.3337423 59.0995841,21.7337712 C58.156496,18.5708192 55.735941,17.0449731 53.494267,14.8481633 C53.979963,16.3581152 54.7668132,18.2540699 55.750659,19.9331819 C56.9903727,22.0471146 58.2787692,23.4719188 58.5018044,23.9146867 C58.9795753,24.862664 59.1063771,25.4972979 59.3350731,26.2454621 L59.491311,26.1217141 C60.4060952,22.1958391 62.2764211,18.0258742 60.5374256,13.9126743 C60.126452,12.7909957 59.6237736,11.6227698 58.7542758,10.6872808 C58.9829718,12.089379 59.4403639,13.3983824 59.1663815,14.9412581" id="Fill-293"></path>
                    <path d="M56.7393731,14.6466472 C55.4124833,11.7016733 52.2571573,11.0477392 50.334752,8.71128729 C51.0219722,11.3747063 54.9811308,15.2665222 55.5494744,15.675231 C56.1189502,16.0839398 57.3914965,17.2896307 58.0322982,18.2251197 C58.1217388,17.6256802 58.1036242,17.1352296 58.2100471,16.2542351 C58.5078048,13.8110648 58.1998577,12.2852186 58.0617344,11.6846438 C57.5749062,9.56276394 56.3646286,7.50786696 54.6346903,6.18637521 L55.3207784,7.96198784 C55.5585317,8.67495762 56.1993335,12.1103821 56.7393731,14.6466472" id="Fill-295"></path>
                    <path d="M55.4148608,11.6245863 C55.4239181,11.428179 55.4239181,11.1114297 55.1635216,10.3519125 C54.2000546,7.54090426 51.8010106,5.17379918 48.6909709,4.14635069 C50.7039489,6.71667486 52.2584026,10.1759407 55.4148608,11.6245863" id="Fill-297"></path>
                    <path d="M46.8804229,53.1635907 C44.8697093,52.7866704 42.355185,51.9215701 40.048978,51.5049142 C38.6009471,51.2426594 36.9536564,50.9508867 35.0867269,51.1904355 C33.4179251,51.4050076 32.1906652,51.5934678 31.0720925,51.8999994 C30.9192511,51.8795639 27.6439163,51.0485227 26.0407797,50.9213689 C24.4387753,50.794215 22.8605463,51.0473874 21.5302599,51.2892068 C19.2240529,51.706998 16.7095286,52.5698277 14.6976828,52.9478833 C13.0515242,53.1352082 11.4053656,52.9478833 10.0331894,52.5266862 C11.2219559,53.5564053 12.6405507,54.1161093 14.1497181,54.5373064 C20.2588458,56.2345832 25.7758546,52.6935756 27.3959736,52.3995323 C28.6504053,52.1724719 28.8677797,52.1497659 29.8210573,52.2905433 L29.4089515,52.4154266 C26.8468767,53.5382405 24.1942291,54.9880214 22.2729559,57.323338 C22.7009119,57.6866347 23.5002159,57.9795427 23.5002159,57.9795427 C23.5002159,57.9795427 23.8455242,56.9941003 25.8403877,55.3138531 C27.520511,53.8992666 29.833511,52.9910248 31.0947357,52.6118339 C32.4170969,53.0534664 34.3349736,53.9174314 35.7377181,55.099281 C37.7337137,56.7783929 38.0801542,57.7638352 38.0801542,57.7638352 C38.0801542,57.7638352 38.878326,57.4709273 39.3062819,57.1087659 C37.5084141,54.9199032 34.9418106,53.431522 32.5371057,52.3404966 C32.9254361,52.3370907 33.4303789,52.4790035 34.1843965,52.6152398 C35.8033833,52.909283 41.3192599,56.4502906 47.4295198,54.7541491 C48.9386872,54.332952 50.3572819,53.7721127 51.5460485,52.7435289 C50.1738722,53.1635907 48.5277137,53.3509156 46.8804229,53.1635907" id="Fill-299"></path>
                    <path d="M41.0943,28.9318141 C40.3380181,27.9384247 39.3122824,26.8769172 38.0703044,25.8097331 C38.1325731,25.5304488 38.1948419,25.2477585 38.2559784,24.963933 C38.6092119,23.2927681 38.8933837,21.6545271 39.1107581,20.0673746 C44.0050797,20.3216823 47.3924982,21.548944 47.6359123,23.4823636 C47.8634762,25.2965765 45.2651722,27.3151438 41.0943,28.9318141 M41.6717009,31.1592771 C41.4045115,31.3159488 41.2222339,31.6031802 41.2222339,31.9369591 C41.2222339,32.2128375 41.3479035,32.4569275 41.5426348,32.6226816 C41.1237361,33.2380154 40.1670621,33.4752935 38.8469652,33.3776576 C38.6726128,32.4557922 38.4427846,31.4839735 38.1608771,30.4758251 C39.1152868,30.1954055 40.0221458,29.8945504 40.8723969,29.5755305 C41.2618595,30.1477228 41.5335775,30.6813148 41.6717009,31.1592771 M37.2132604,41.0137001 C36.218093,41.4576033 34.833463,40.8422695 33.2948595,39.4424419 C34.205115,37.7122413 35.0734806,35.7038918 35.8637273,33.4900525 C36.7411502,33.7568485 37.5619652,33.9475793 38.310322,34.0611095 C38.9590489,37.7179179 38.6363837,40.3779309 37.2132604,41.0137001 M26.3490665,45.4357022 C23.6771722,45.1893416 22.3627361,39.9192688 22.6344542,32.6817173 C23.0069344,32.6976115 23.3862075,32.706694 23.7722736,32.7100999 C23.9647405,32.9984666 24.2330621,33.0926967 24.5274233,33.0813437 C24.8976392,33.0688554 25.2406833,32.9031012 25.2950269,32.462604 C25.9550753,32.4444391 26.6321062,32.413786 27.3204586,32.3706445 C29.0322824,35.3996308 30.8844938,37.8916191 32.6155643,39.5559721 C30.5323925,43.3864817 28.2635467,45.6128093 26.3490665,45.4357022 M13.5149167,28.5208348 C13.2896172,26.7293279 15.8765996,24.7289254 19.9999211,23.1145257 C20.6429872,23.9818966 21.5056921,24.9083032 22.5495423,25.8494687 C22.2314057,27.905501 22.0230885,29.8820621 21.91893,31.7416871 C17.1706568,31.4805676 13.7515379,30.4088423 13.5149167,28.5208348 M19.5651722,19.479288 C19.9387846,18.8457894 20.8479079,18.5846699 22.1170577,18.6516527 C22.290278,19.5803299 22.518974,20.5600957 22.8020137,21.5795971 C21.912137,21.8429872 21.0630181,22.1256775 20.2637141,22.424262 C19.4428991,21.2094886 19.156463,20.1706871 19.5651722,19.479288 M22.4702912,16.4718725 C22.825789,16.3492599 23.0522207,15.9984515 23.0522207,15.590878 C23.0522207,15.2491521 22.9593837,15.0254975 22.5914322,14.8415786 C22.661626,13.1511136 22.9514586,11.8421102 23.8288815,11.4504309 C24.4685511,11.1654701 25.2701194,11.3210065 26.1690533,11.8421102 C25.3969211,13.8379714 24.7029079,16.0449989 24.0813529,18.4643279 C23.5956568,18.3598801 23.132604,18.2826795 22.6978551,18.2338615 C22.5936965,17.6151218 22.5167097,17.0247647 22.4702912,16.4718725 M37.0977802,27.1948018 C36.8385159,26.4863732 36.5554762,25.7665916 36.2509256,25.0411335 C36.6449167,25.339718 37.0219256,25.6394378 37.3808198,25.936887 C37.2902471,26.3603547 37.1951458,26.7804165 37.0977802,27.1948018 M37.4736568,28.2597152 C37.6332912,27.6511933 37.7861326,27.0335889 37.9333132,26.4069021 C39.0156568,27.3526088 39.9055335,28.2801507 40.5553925,29.1361685 C39.7583529,29.4279412 38.9092339,29.7072255 38.0159608,29.9660745 C37.8517978,29.4075058 37.6695203,28.8375841 37.4736568,28.2597152 M36.9121062,30.2714707 C36.989093,30.0080806 37.0672119,29.7435552 37.1430665,29.4756239 C37.2155247,29.7026843 37.2868507,29.9286095 37.3547802,30.152264 C37.2075996,30.1931349 37.0604189,30.2317352 36.9121062,30.2714707 M36.732093,30.8686397 C36.9924894,30.8016569 37.2506216,30.7324034 37.5053573,30.6620147 C37.7702824,31.5793389 37.9899211,32.462604 38.1620093,33.300457 C37.5313969,33.2084975 36.8362515,33.0529611 36.0912912,32.838389 C36.3120621,32.1980786 36.5249079,31.5407386 36.732093,30.8686397 M32.9404938,31.6917338 C34.0171767,31.4998677 35.0610269,31.2796191 36.0652515,31.0366644 C35.8965599,31.5929625 35.7222075,32.1390429 35.5433264,32.6726349 C34.7213793,32.4115154 33.848485,32.083413 32.9404938,31.6917338 M26.0841414,28.6127942 C26.8132515,29.1123272 27.5819872,29.603913 28.3846877,30.08074 C29.2338066,30.5836788 30.0783969,31.0457468 30.9082692,31.463538 C29.8123396,31.6156685 28.7390533,31.7314694 27.6963352,31.8120758 C27.1404454,30.8016569 26.6004057,29.7310669 26.0841414,28.6127942 M25.088974,27.905501 C25.1557714,28.0599021 25.2225687,28.2131679 25.2927626,28.367569 C25.8452559,29.5902894 26.4317141,30.7562448 27.0362868,31.8586232 C26.4430357,31.8960882 25.859974,31.9233354 25.2916304,31.9380944 C25.2259652,31.609992 24.924811,31.3216253 24.4911943,31.3624962 C24.089278,31.3999611 23.9239828,31.4726205 23.7518947,31.8029934 C23.3873396,31.7995875 23.0284454,31.7905051 22.6763441,31.7780168 C22.7691811,30.0796047 22.94693,28.2824213 23.2107229,26.4273375 C23.7915203,26.921194 24.4198683,27.4150504 25.088974,27.905501 M23.5854674,24.0852091 C23.8866216,24.9582565 24.2217405,25.8494687 24.5942207,26.7520339 C24.1447537,26.4023609 23.7190621,26.0526878 23.3171458,25.7052853 C23.3997934,25.1694227 23.4892339,24.6290188 23.5854674,24.0852091 M23.1190181,22.6615401 C22.9514586,23.491446 22.8008815,24.3122695 22.6661546,25.12174 C21.8306216,24.3474639 21.1309476,23.5936232 20.5954366,22.8874652 C21.3381326,22.6127221 22.126115,22.3504673 22.9514586,22.105242 C23.0058022,22.289161 23.061278,22.4742152 23.1190181,22.6615401 M23.3963969,21.3514014 C23.1439256,20.429536 22.9390048,19.5462709 22.7838991,18.7118238 C23.154115,18.7595065 23.5503705,18.8298952 23.9658727,18.9218547 C23.7688771,19.7097544 23.5786744,20.5192249 23.3963969,21.3514014 M28.1571238,20.3239529 C26.7657009,20.5725841 25.4263573,20.8666273 24.1594718,21.2004062 C24.3168419,20.4851658 24.482137,19.7812784 24.6553573,19.0898794 C25.7252471,19.3737049 26.9083529,19.7892255 28.1571238,20.3239529 M29.7998859,20.0571569 C29.5598683,20.0923512 29.322115,20.1298162 29.0843617,20.1672812 C27.5525511,19.482694 26.0909344,18.9638609 24.7742339,18.6278114 C25.3663529,16.3322304 26.045648,14.1853739 26.7838154,12.2440071 C28.615648,13.573446 30.7690137,16.2402709 32.7808595,19.7040779 C31.8072031,19.7914962 30.8120357,19.9084323 29.7998859,20.0571569 M32.9789872,22.1926603 C31.9623088,21.5886795 30.9490269,21.0471404 29.9595203,20.5714488 C29.9663132,20.5703135 29.9731062,20.5703135 29.9798991,20.5691782 C31.0305423,20.4136418 32.0619388,20.294435 33.0672956,20.2047462 C33.6073352,21.1629412 34.1349211,22.1756308 34.640996,23.2348677 C34.1066172,22.8806534 33.5518595,22.5321157 32.9789872,22.1926603 M35.1006524,24.2169041 C35.7516436,25.6530614 36.3154586,27.0687832 36.7920974,28.4345518 C36.6166128,29.1180037 36.4332031,29.787832 36.2418683,30.4429014 C34.9149784,30.7710037 33.5099696,31.0570999 32.0506172,31.2921074 C30.9229872,30.7675978 29.7545996,30.152264 28.5748903,29.4529179 C27.5083969,28.8194192 26.5064366,28.1598087 25.581463,27.4911157 C24.8840533,25.8812571 24.2975952,24.3054577 23.825485,22.8057235 C23.8492604,22.6785696 23.8741678,22.5514158 23.9002075,22.424262 C23.9432295,22.214231 23.9862515,22.0064707 24.0304057,21.7975751 C25.5950489,21.3741074 27.2763044,21.0074048 29.0345467,20.7167674 C30.1961414,21.2526301 31.4018903,21.8849934 32.6166965,22.6059103 C33.4873264,23.1236081 34.3149344,23.6572001 35.0927273,24.1998746 C35.0949916,24.2055511 35.0983881,24.2112276 35.1006524,24.2169041 M27.9827714,32.3240971 C29.0571899,32.2423554 30.1599123,32.1265545 31.2864101,31.9619357 C31.4505731,31.9369591 31.6147361,31.9119824 31.7766348,31.8870058 C33.012952,32.4705511 34.2073793,32.9519192 35.3225555,33.3197571 C34.5719344,35.4666136 33.7454586,37.395492 32.8838859,39.0530332 C31.3045247,37.4999398 29.5904366,35.1657585 27.9827714,32.3240971 M37.5076216,25.3385827 C36.9789035,24.9071679 36.4150885,24.475753 35.8218374,24.0488794 C35.7754189,23.9455669 35.7312648,23.8422544 35.6848463,23.7389419 C35.1131062,22.4764859 34.5074013,21.2742008 33.8813176,20.1400339 C35.4731326,20.0253684 36.989093,19.9935799 38.3941018,20.0378567 C38.1903132,21.6522565 37.917463,23.3234213 37.5721546,25.0275099 C37.5517758,25.1319577 37.5291326,25.2352702 37.5076216,25.3385827 M32.6472648,2.6631919 C32.7876524,2.74606896 33.0095555,2.80851058 33.1839079,2.80851058 C33.6650753,2.80851058 34.05567,2.51787321 34.1224674,2.05694052 C34.4598507,1.97860467 34.8017626,1.95362802 35.1244278,2.01493434 C38.3057934,2.62118571 39.5840004,10.0358444 38.4575026,19.531512 C36.9438066,19.4781527 35.3123661,19.5099412 33.5994101,19.6370951 C31.4743485,15.8974096 29.1375731,12.9899007 27.0872339,11.4606486 C28.7843396,7.2089419 30.7508991,4.04826058 32.6472648,2.6631919 M48.3570974,23.39381 C48.0887758,21.2412771 44.4330357,19.8573437 39.1775555,19.5644357 C40.4761414,9.50906415 39.0496216,1.62325508 35.504833,0.914826511 C34.9308286,0.800160989 34.297952,0.791078571 33.6571502,0.956832692 C33.4873264,0.803566896 33.2812736,0.767237225 33.034463,0.767237225 C32.5068771,0.767237225 32.077789,1.19524615 32.077789,1.72202637 C32.077789,1.82193297 32.0970357,1.91616305 32.1264718,2.00698723 C29.9198947,4.20039107 28.0507009,7.2134831 26.4849256,11.0473986 C25.3131414,10.3094522 24.2568374,10.0676328 23.4235687,10.4388766 C22.2710313,10.9508979 21.5226744,12.6561218 21.5238066,14.9471617 C21.2611458,15.0913451 21.1943485,15.4069591 21.2079344,15.6431019 C21.2283132,16.0075339 21.4887097,16.297036 21.8000533,16.4400841 C21.8521326,16.9929762 21.9313837,17.5765216 22.033278,18.1816376 C20.5082604,18.1123842 19.4010093,18.4450277 18.9356921,19.2329275 C18.4454674,20.0639687 18.7534145,21.267389 19.6727273,22.6501871 C15.2380621,24.3985525 12.4767273,26.6135271 12.7280665,28.6241473 C12.9941238,30.7641919 16.6657141,32.3025264 21.8770401,32.6408464 C21.5940004,40.0577757 23.0431634,45.4220786 25.9641326,46.1043952 C28.1424057,46.6118753 30.7044806,44.1823286 33.02767,39.9397043 C34.7813837,41.5098272 36.3845203,42.1887379 37.5529079,41.6687695 C39.1752912,40.9467173 39.6134366,38.0664556 38.9816921,34.1428512 C40.6572868,34.2938464 41.8777537,33.9850442 42.3736392,33.1449206 C42.4370401,33.0370669 42.5128947,32.8838011 42.5502559,32.7634591 C42.8763176,32.6283581 43.0540665,32.2979852 43.0540665,31.9222001 C43.0540665,31.4953265 42.7280048,31.1536005 42.3306172,31.0593705 C42.1381502,30.5348609 41.8279388,29.9660745 41.4124366,29.3677702 C45.8471018,27.6205401 48.6084366,25.4044302 48.3570974,23.39381" id="Fill-301"></path>
                    <path d="M32.2598401,29.075884 C32.2598401,29.7286828 32.787426,30.2577336 33.4384172,30.2577336 C34.0894084,30.2577336 34.6158621,29.7286828 34.6158621,29.075884 C34.6158621,28.4230852 34.0894084,27.8940344 33.4384172,27.8940344 C32.787426,27.8940344 32.2598401,28.4230852 32.2598401,29.075884" id="Fill-303"></path>
                    <polygon id="Fill-305" points="74.7179383 40.8833674 79.2794053 40.8833674 79.2794053 18.2102473 74.7179383 18.2102473"></polygon>
                    <path d="M99.5041731,31.8985859 L96.3805476,23.4973496 L93.3191907,31.8985859 L99.5041731,31.8985859 Z M107.879882,40.8833674 L102.916499,40.8833674 L100.977111,35.7268249 L91.9243714,35.7268249 L90.0449881,40.8833674 L85.2050101,40.8833674 L94.0188648,18.2102473 L98.8724286,18.2102473 L107.879882,40.8833674 Z" id="Fill-307"></path>
                    <polygon id="Fill-308" points="114.184081 40.883708 114.184081 18.2105878 130.940028 18.2105878 130.940028 22.0376916 118.744416 22.0376916 118.744416 27.065945 130.098834 27.065945 130.098834 30.8930487 118.744416 30.8930487 118.744416 37.0566043 131.360059 37.0566043 131.360059 40.883708"></polygon>
                    <path d="M151.127661,31.8985859 L148.004036,23.4973496 L144.942679,31.8985859 L151.127661,31.8985859 Z M159.50337,40.8833674 L154.541119,40.8833674 L152.6006,35.7268249 L143.547859,35.7268249 L141.668476,40.8833674 L136.828498,40.8833674 L145.642353,18.2102473 L150.495917,18.2102473 L159.50337,40.8833674 Z" id="Fill-309"></path>
                    <polygon id="Fill-310" points="74.6239692 54.9781442 76.1331366 54.9781442 76.1331366 47.5294265 74.6239692 47.5294265"></polygon>
                    <path d="M82.5675335,54.9776901 L81.1398815,54.9776901 L81.1398815,52.2257176 C81.1398815,51.6421723 81.1093132,51.2663872 81.0493088,51.0949566 C80.9893044,50.9246613 80.8908066,50.7906956 80.7549476,50.6964655 C80.6190885,50.6022354 80.4549256,50.5545527 80.2647229,50.5545527 C80.0190445,50.5545527 79.7994057,50.6215356 79.6046744,50.7577718 C79.4099432,50.8928728 79.2763485,51.0722505 79.2050225,51.2959051 C79.1325643,51.5195596 79.0963352,51.9316743 79.0963352,52.5356551 L79.0963352,54.9776901 L77.6686833,54.9776901 L77.6686833,49.5781929 L78.9989696,49.5781929 L78.9989696,50.3706338 C79.4665511,49.766653 80.0552736,49.4635273 80.765137,49.4635273 C81.0787449,49.4635273 81.3640489,49.5214277 81.6233132,49.634958 C81.8825775,49.7484882 82.078441,49.8926716 82.2120357,50.0686434 C82.3444982,50.2446152 82.4373352,50.4444284 82.4894145,50.6669477 C82.5414938,50.8906022 82.5675335,51.2118927 82.5675335,51.6274133 L82.5675335,54.9776901 Z" id="Fill-311"></path>
                    <path d="M86.6369643,49.5781929 L86.6369643,50.716901 L85.6644401,50.716901 L85.6644401,52.8966812 C85.6644401,53.3383137 85.6734974,53.594892 85.6916119,53.6686867 C85.7097264,53.741346 85.7527485,53.801517 85.8184137,53.8491997 C85.8840789,53.8980177 85.9644621,53.9207238 86.0584313,53.9207238 C86.1897617,53.9207238 86.3799643,53.8753117 86.6290392,53.7833522 L86.73433,54.8936777 C86.406004,55.0367258 86.0346559,55.1082499 85.6191537,55.1082499 C85.3644181,55.1082499 85.1345899,55.0639731 84.9308013,54.9776901 C84.7258806,54.8914071 84.5753035,54.7790122 84.4802022,54.642776 C84.3851009,54.5042691 84.3183035,54.3180795 84.2820744,54.0842073 C84.2515062,53.9173179 84.2367881,53.5812684 84.2367881,53.0749236 L84.2367881,50.716901 L83.5880612,50.716901 L83.5880612,49.5781929 L84.2367881,49.5781929 L84.2367881,48.504197 L85.6644401,47.6583968 L85.6644401,49.5781929 L86.6369643,49.5781929 Z" id="Fill-312"></path>
                    <path d="M90.9692824,51.8223447 C90.959093,51.4090947 90.85267,51.0923454 90.6500137,50.876638 C90.4462251,50.6620659 90.1994145,50.5542122 89.9084498,50.5542122 C89.5971062,50.5542122 89.3401062,50.6677424 89.1363176,50.8959381 C88.9336612,51.1229986 88.8340313,51.4318008 88.8374278,51.8223447 L90.9692824,51.8223447 Z M90.8719167,53.2539608 L92.2995687,53.4980508 C92.116159,54.0225604 91.8285907,54.423322 91.4357317,54.6957946 C91.0428727,54.971673 90.5503837,55.1079093 89.9593969,55.1079093 C89.0242339,55.1079093 88.332485,54.8013777 87.8841502,54.1883145 C87.5297846,53.6955933 87.3520357,53.0757183 87.3520357,52.3264189 C87.3520357,51.4318008 87.5852604,50.730184 88.0517097,50.2249745 C88.518159,49.7174944 89.1068815,49.464322 89.8201414,49.464322 C90.6217097,49.464322 91.2534542,49.7299828 91.716507,50.2601689 C92.1795599,50.7914903 92.4003308,51.6043667 92.379952,52.7010686 L88.8125203,52.7010686 C88.8215775,53.1211304 88.9359256,53.4503681 89.1544322,53.683105 C89.3729388,53.9169773 89.6446568,54.0350487 89.9707185,54.0350487 C90.1914894,54.0350487 90.3782956,53.9737424 90.5288727,53.8499944 C90.6805819,53.7262465 90.79493,53.5275686 90.8719167,53.2539608 L90.8719167,53.2539608 Z" id="Fill-313"></path>
                    <path d="M94.8473784,54.9776901 L93.4197264,54.9776901 L93.4197264,49.5781929 L94.7500128,49.5781929 L94.7500128,50.3456571 C94.9764445,49.9834957 95.1791009,49.7462176 95.3591141,49.6326874 C95.5391273,49.5214277 95.744048,49.4635273 95.9727441,49.4635273 C96.2965414,49.4635273 96.607885,49.5543515 96.907907,49.7348646 L96.4618366,50.983697 C96.2229511,50.8270253 96.001048,50.7498247 95.7961273,50.7498247 C95.5968674,50.7498247 95.4293079,50.8043192 95.2911846,50.9144435 C95.1530612,51.0245679 95.0455062,51.2232457 94.9662551,51.5093419 C94.887004,51.7977087 94.8473784,52.3994188 94.8473784,53.3144724 L94.8473784,54.9776901 Z" id="Fill-314"></path>
                    <path d="M102.552397,54.9776901 L101.124745,54.9776901 L101.124745,52.2257176 C101.124745,51.6421723 101.094177,51.2663872 101.034172,51.0949566 C100.974168,50.9246613 100.87567,50.7906956 100.739811,50.6964655 C100.603952,50.6022354 100.439789,50.5545527 100.249586,50.5545527 C100.003908,50.5545527 99.7842692,50.6215356 99.5895379,50.7577718 C99.3948066,50.8928728 99.2612119,51.0722505 99.1898859,51.2959051 C99.1174278,51.5195596 99.0811987,51.9316743 99.0811987,52.5356551 L99.0811987,54.9776901 L97.6535467,54.9776901 L97.6535467,49.5781929 L98.983833,49.5781929 L98.983833,50.3706338 C99.4514145,49.766653 100.040137,49.4635273 100.75,49.4635273 C101.063608,49.4635273 101.348912,49.5214277 101.608177,49.634958 C101.867441,49.7484882 102.063304,49.8926716 102.196899,50.0686434 C102.329362,50.2446152 102.421067,50.4444284 102.474278,50.6669477 C102.526357,50.8906022 102.552397,51.2118927 102.552397,51.6274133 L102.552397,54.9776901 Z" id="Fill-315"></path>
                    <path d="M107.124733,52.3918123 C106.942455,52.4531186 106.654887,52.525778 106.260896,52.6109256 C105.866904,52.694938 105.609904,52.777815 105.488763,52.8584215 C105.303089,52.9923872 105.210252,53.1592766 105.210252,53.3624957 C105.210252,53.5623089 105.284975,53.7360101 105.432156,53.8813288 C105.580468,54.0266475 105.769539,54.0993068 105.998235,54.0993068 C106.254103,54.0993068 106.498649,54.0152944 106.730741,53.8461344 C106.90283,53.71671 107.014913,53.558903 107.069257,53.3727134 C107.105486,53.2512361 107.124733,53.0196344 107.124733,52.6767731 L107.124733,52.3918123 Z M105.210252,51.23721 L103.928649,51.0090142 C104.074697,50.4845046 104.323772,50.0950959 104.678138,49.8430589 C105.032504,49.5898865 105.558957,49.4638679 106.257499,49.4638679 C106.891508,49.4638679 107.363618,49.5387979 107.67383,49.6897931 C107.984041,49.8407883 108.20368,50.0326543 108.329349,50.264256 C108.456151,50.4958576 108.519552,50.9204606 108.519552,51.5414709 L108.503702,53.205824 C108.503702,53.6803803 108.526345,54.0289181 108.571631,54.2548432 C108.616918,54.479633 108.702962,54.7203171 108.827499,54.9780307 L107.400979,54.9780307 C107.363618,54.8838006 107.318332,54.7441584 107.263988,54.5591042 C107.241345,54.4750918 107.224363,54.419462 107.214173,54.3922148 C106.973023,54.6306282 106.714891,54.810006 106.439777,54.9292127 C106.164662,55.0484194 105.871433,55.1085905 105.558957,55.1085905 C105.00986,55.1085905 104.575111,54.9575953 104.259239,54.6556049 C103.942235,54.3547498 103.7826,53.9732883 103.7826,53.5123556 C103.7826,53.2080946 103.856191,52.935622 104.001107,52.6972086 C104.146023,52.4576598 104.349812,52.2748762 104.611341,52.1477223 C104.872869,52.0205685 105.249878,51.9104442 105.742367,51.8150788 C106.406944,51.6901955 106.867733,51.5732594 107.124733,51.4642704 L107.124733,51.3223576 C107.124733,51.0453439 107.056803,50.8478013 106.920944,50.7308652 C106.785085,50.6127938 106.529217,50.553758 106.152208,50.553758 C105.897473,50.553758 105.699345,50.6048466 105.556693,50.7047532 C105.414041,50.8069304 105.298561,50.9840376 105.210252,51.23721 L105.210252,51.23721 Z" id="Fill-316"></path>
                    <path d="M112.540526,49.5781929 L112.540526,50.716901 L111.56687,50.716901 L111.56687,52.8966812 C111.56687,53.3383137 111.577059,53.594892 111.595174,53.6686867 C111.613289,53.741346 111.655178,53.801517 111.721976,53.8491997 C111.786509,53.8980177 111.866892,53.9207238 111.960861,53.9207238 C112.093324,53.9207238 112.283526,53.8753117 112.532601,53.7833522 L112.637892,54.8936777 C112.309566,55.0367258 111.937086,55.1082499 111.522716,55.1082499 C111.266848,55.1082499 111.03702,55.0639731 110.833231,54.9776901 C110.629443,54.8914071 110.478866,54.7790122 110.383764,54.642776 C110.288663,54.5042691 110.221866,54.3180795 110.185637,54.0842073 C110.155068,53.9173179 110.14035,53.5812684 110.14035,53.0749236 L110.14035,50.716901 L109.491623,50.716901 L109.491623,49.5781929 L110.14035,49.5781929 L110.14035,48.504197 L111.56687,47.6583968 L111.56687,49.5781929 L112.540526,49.5781929 Z" id="Fill-317"></path>
                    <path d="M113.660797,54.9781442 L115.622629,54.9781442 L115.622629,49.578647 L113.660797,49.578647 L113.660797,54.9781442 Z M113.660797,48.8463771 L115.622629,48.8463771 L115.622629,47.5294265 L113.660797,47.5294265 L113.660797,48.8463771 Z" id="Fill-318"></path>
                    <path d="M117.826122,52.2862292 C117.826122,52.8209565 117.952924,53.2273947 118.205395,53.5112203 C118.458999,53.7950458 118.771474,53.9369586 119.142822,53.9369586 C119.513038,53.9369586 119.825514,53.7950458 120.076853,53.5112203 C120.328193,53.2273947 120.453862,52.8164153 120.453862,52.2760115 C120.453862,51.7492313 120.328193,51.3439284 120.076853,51.0601028 C119.825514,50.7774126 119.513038,50.6343645 119.142822,50.6343645 C118.771474,50.6343645 118.458999,50.7774126 118.205395,51.0601028 C117.952924,51.3439284 117.826122,51.7526372 117.826122,52.2862292 M116.36677,52.2101639 C116.36677,51.7356076 116.48225,51.2758102 116.715474,50.8319071 C116.948699,50.3880039 117.278157,50.0485486 117.704981,49.8146763 C118.131805,49.5808041 118.608444,49.4638679 119.134897,49.4638679 C119.947787,49.4638679 120.614629,49.7295286 121.134289,50.2597148 C121.65395,50.7910362 121.913215,51.4608645 121.913215,52.270335 C121.913215,53.0888878 121.651686,53.765528 121.126364,54.3013906 C120.602175,54.8395238 119.940994,55.1085905 119.145087,55.1085905 C118.652598,55.1085905 118.182752,54.9961955 117.735549,54.772541 C117.288347,54.5488865 116.948699,54.2207841 116.715474,53.788234 C116.48225,53.3556839 116.36677,52.8300389 116.36677,52.2101639" id="Fill-319"></path>
                    <path d="M128.075441,54.9776901 L126.647789,54.9776901 L126.647789,52.2257176 C126.647789,51.6421723 126.61722,51.2663872 126.557216,51.0949566 C126.497211,50.9246613 126.398714,50.7906956 126.262855,50.6964655 C126.126996,50.6022354 125.963965,50.5545527 125.77263,50.5545527 C125.526952,50.5545527 125.307313,50.6215356 125.112581,50.7577718 C124.91785,50.8928728 124.784256,51.0722505 124.71293,51.2959051 C124.640471,51.5195596 124.604242,51.9316743 124.604242,52.5356551 L124.604242,54.9776901 L123.17659,54.9776901 L123.17659,49.5781929 L124.506877,49.5781929 L124.506877,50.3706338 C124.974458,49.766653 125.563181,49.4635273 126.273044,49.4635273 C126.586652,49.4635273 126.871956,49.5214277 127.13122,49.634958 C127.390485,49.7484882 127.586348,49.8926716 127.719943,50.0686434 C127.852405,50.2446152 127.94411,50.4444284 127.997322,50.6669477 C128.049401,50.8906022 128.075441,51.2118927 128.075441,51.6274133 L128.075441,54.9776901 Z" id="Fill-320"></path>
                    <path d="M132.648003,52.3918123 C132.465725,52.4531186 132.178157,52.525778 131.784166,52.6109256 C131.390174,52.694938 131.133174,52.777815 131.012033,52.8584215 C130.826359,52.9923872 130.733522,53.1592766 130.733522,53.3624957 C130.733522,53.5623089 130.807113,53.7360101 130.956558,53.8813288 C131.103738,54.0266475 131.292809,54.0993068 131.521505,54.0993068 C131.777373,54.0993068 132.021919,54.0152944 132.254011,53.8461344 C132.4261,53.71671 132.538183,53.558903 132.592527,53.3727134 C132.629888,53.2512361 132.648003,53.0196344 132.648003,52.6767731 L132.648003,52.3918123 Z M130.733522,51.23721 L129.453051,51.0090142 C129.597967,50.4845046 129.847042,50.0950959 130.201408,49.8430589 C130.555774,49.5898865 131.082227,49.4638679 131.780769,49.4638679 C132.414778,49.4638679 132.88802,49.5387979 133.1971,49.6897931 C133.507311,49.8407883 133.725818,50.0326543 133.852619,50.264256 C133.979421,50.4958576 134.042822,50.9204606 134.042822,51.5414709 L134.026972,53.205824 C134.026972,53.6803803 134.049615,54.0289181 134.094901,54.2548432 C134.140188,54.479633 134.226232,54.7203171 134.350769,54.9780307 L132.924249,54.9780307 C132.886888,54.8838006 132.841602,54.7441584 132.787258,54.5591042 C132.764615,54.4750918 132.747633,54.419462 132.737443,54.3922148 C132.495161,54.6306282 132.238161,54.810006 131.961915,54.9292127 C131.687932,55.0484194 131.394703,55.1085905 131.082227,55.1085905 C130.53313,55.1085905 130.098381,54.9575953 129.782509,54.6556049 C129.464373,54.3547498 129.307003,53.9732883 129.307003,53.5123556 C129.307003,53.2080946 129.379461,52.935622 129.524377,52.6972086 C129.669293,52.4576598 129.873082,52.2748762 130.134611,52.1477223 C130.396139,52.0205685 130.773148,51.9104442 131.265637,51.8150788 C131.930214,51.6901955 132.391003,51.5732594 132.648003,51.4642704 L132.648003,51.3223576 C132.648003,51.0453439 132.580073,50.8478013 132.444214,50.7308652 C132.308355,50.6127938 132.052487,50.553758 131.675478,50.553758 C131.420743,50.553758 131.222615,50.6048466 131.079963,50.7047532 C130.937311,50.8069304 130.822963,50.9840376 130.733522,51.23721 L130.733522,51.23721 Z" id="Fill-321"></path>
                    <polygon id="Fill-322" points="135.374467 54.9781442 136.802119 54.9781442 136.802119 47.5294265 135.374467 47.5294265"></polygon>
                    <path d="M145.242135,52.0179573 L144.200549,49.2693907 L143.198589,52.0179573 L145.242135,52.0179573 Z M147.987619,54.9776901 L146.364104,54.9776901 L145.72217,53.2860898 L142.735536,53.2860898 L142.118509,54.9776901 L140.526694,54.9776901 L143.415963,47.5289724 L145.00891,47.5289724 L147.987619,54.9776901 Z" id="Fill-323"></path>
                    <path d="M151.380585,49.5781929 L151.380585,50.716901 L150.406929,50.716901 L150.406929,52.8966812 C150.406929,53.3383137 150.415986,53.594892 150.435233,53.6686867 C150.453348,53.741346 150.495237,53.801517 150.560903,53.8491997 C150.626568,53.8980177 150.706951,53.9207238 150.80092,53.9207238 C150.932251,53.9207238 151.122453,53.8753117 151.37266,53.7833522 L151.477951,54.8936777 C151.149625,55.0367258 150.777145,55.1082499 150.361643,55.1082499 C150.106907,55.1082499 149.877079,55.0639731 149.67329,54.9776901 C149.469502,54.8914071 149.318925,54.7790122 149.223823,54.642776 C149.128722,54.5042691 149.061925,54.3180795 149.024563,54.0842073 C148.995127,53.9173179 148.979277,53.5812684 148.979277,53.0749236 L148.979277,50.716901 L148.331682,50.716901 L148.331682,49.5781929 L148.979277,49.5781929 L148.979277,48.504197 L150.406929,47.6583968 L150.406929,49.5781929 L151.380585,49.5781929 Z" id="Fill-324"></path>
                    <path d="M153.636072,52.2862292 C153.636072,52.8209565 153.762874,53.2273947 154.016477,53.5112203 C154.270081,53.7950458 154.581424,53.9369586 154.952772,53.9369586 C155.32412,53.9369586 155.635464,53.7950458 155.886803,53.5112203 C156.138142,53.2273947 156.263812,52.8164153 156.263812,52.2760115 C156.263812,51.7492313 156.138142,51.3439284 155.886803,51.0601028 C155.635464,50.7774126 155.32412,50.6343645 154.952772,50.6343645 C154.581424,50.6343645 154.270081,50.7774126 154.016477,51.0601028 C153.762874,51.3439284 153.636072,51.7526372 153.636072,52.2862292 M152.176719,52.2101639 C152.176719,51.7356076 152.293332,51.2758102 152.526556,50.8319071 C152.758649,50.3880039 153.089239,50.0485486 153.516063,49.8146763 C153.941755,49.5808041 154.418393,49.4638679 154.944847,49.4638679 C155.757737,49.4638679 156.424578,49.7295286 156.944239,50.2597148 C157.4639,50.7910362 157.723164,51.4608645 157.723164,52.270335 C157.723164,53.0888878 157.461636,53.765528 156.937446,54.3013906 C156.412125,54.8395238 155.752076,55.1085905 154.955037,55.1085905 C154.462548,55.1085905 153.992702,54.9961955 153.545499,54.772541 C153.099429,54.5488865 152.758649,54.2207841 152.526556,53.788234 C152.293332,53.3556839 152.176719,52.8300389 152.176719,52.2101639" id="Fill-325"></path>
                    <path d="M158.890193,49.5781929 L160.20463,49.5781929 L160.20463,50.315004 C160.674475,49.7473529 161.234894,49.4635273 161.885885,49.4635273 C162.231193,49.4635273 162.531215,49.5350514 162.784819,49.6769641 C163.038422,49.8188769 163.247872,50.033449 163.40977,50.3206805 C163.647524,50.033449 163.902259,49.8188769 164.176242,49.6769641 C164.450224,49.5350514 164.743453,49.4635273 165.054797,49.4635273 C165.44992,49.4635273 165.786171,49.5441338 166.060154,49.7053467 C166.334136,49.8654243 166.539057,50.1027025 166.673784,50.4137753 C166.772281,50.6442416 166.822096,51.0166207 166.822096,51.5309126 L166.822096,54.9776901 L165.394444,54.9776901 L165.394444,51.8942093 C165.394444,51.359482 165.34463,51.0143501 165.246132,50.8588137 C165.114801,50.6555946 164.912145,50.5545527 164.638163,50.5545527 C164.438903,50.5545527 164.250964,50.6147238 164.074348,50.7373364 C163.898863,50.8588137 163.772061,51.0370562 163.695074,51.273199 C163.615823,51.5082066 163.578462,51.8805857 163.578462,52.3880658 L163.578462,54.9776901 L162.15081,54.9776901 L162.15081,52.0224985 C162.15081,51.4968536 162.12477,51.1585335 162.073823,51.006403 C162.022876,50.8542725 161.944757,50.739607 161.838334,50.6658124 C161.730779,50.5908824 161.586995,50.5545527 161.403585,50.5545527 C161.183947,50.5545527 160.985819,50.6135885 160.809202,50.7316599 C160.633718,50.8508666 160.508048,51.021162 160.431061,51.2448165 C160.355207,51.468471 160.317845,51.8385795 160.317845,52.3574126 L160.317845,54.9776901 L158.890193,54.9776901 L158.890193,49.5781929 Z" id="Fill-326"></path>
                    <path d="M168.363304,54.9781442 L170.325136,54.9781442 L170.325136,49.578647 L168.363304,49.578647 L168.363304,54.9781442 Z M168.363304,48.8463771 L170.325136,48.8463771 L170.325136,47.5294265 L168.363304,47.5294265 L168.363304,48.8463771 Z" id="Fill-327"></path>
                    <path d="M176.11225,51.1720436 L174.701581,51.4320278 C174.65403,51.1516082 174.547607,50.9415773 174.378915,50.7985292 C174.211356,50.6577517 173.993981,50.5862277 173.726792,50.5862277 C173.372426,50.5862277 173.089387,50.7099756 172.877673,50.9540656 C172.667092,51.1992909 172.559537,51.6102703 172.559537,52.1847332 C172.559537,52.8250436 172.667092,53.2768939 172.883334,53.5414193 C173.098444,53.8048094 173.387144,53.9376398 173.750567,53.9376398 C174.021153,53.9376398 174.244189,53.8581686 174.416277,53.7026322 C174.589497,53.5470958 174.710638,53.2768939 174.781964,52.8965677 L176.176783,53.1395223 C176.031867,53.7900505 175.753356,54.2793657 175.34125,54.6120093 C174.929144,54.9423822 174.376651,55.1081363 173.68377,55.1081363 C172.898052,55.1081363 172.269704,54.8595052 171.802122,54.3611075 C171.334541,53.8627098 171.100184,53.1724461 171.100184,52.2914516 C171.100184,51.4002394 171.335673,50.7054344 171.805519,50.2093073 C172.276497,49.7131803 172.911638,49.4645491 173.712074,49.4645491 C174.368726,49.4645491 174.890651,49.6053266 175.277849,49.8857462 C175.665048,50.1673012 175.942426,50.5964454 176.11225,51.1720436" id="Fill-328"></path>
                    <polygon id="Fill-329" points="180.372903 54.9776901 180.372903 47.5289724 185.871797 47.5289724 185.871797 48.7971049 181.88207 48.7971049 181.88207 50.4398872 185.59555 50.4398872 185.59555 51.7091551 181.88207 51.7091551 181.88207 53.7095576 186.017845 53.7095576 186.017845 54.9776901"></polygon>
                    <path d="M192.307892,54.9776901 L190.88024,54.9776901 L190.88024,52.2257176 C190.88024,51.6421723 190.849672,51.2663872 190.7908,51.0949566 C190.728531,50.9246613 190.631165,50.7906956 190.495306,50.6964655 C190.359447,50.6022354 190.196416,50.5545527 190.005081,50.5545527 C189.760535,50.5545527 189.539764,50.6215356 189.345033,50.7577718 C189.151434,50.8928728 189.016707,51.0722505 188.945381,51.2959051 C188.872923,51.5195596 188.836694,51.9316743 188.836694,52.5356551 L188.836694,54.9776901 L187.409042,54.9776901 L187.409042,49.5781929 L188.739328,49.5781929 L188.739328,50.3706338 C189.208042,49.766653 189.795632,49.4635273 190.506628,49.4635273 C190.817971,49.4635273 191.10554,49.5214277 191.363672,49.634958 C191.622936,49.7484882 191.8188,49.8926716 191.952394,50.0686434 C192.084857,50.2446152 192.177694,50.4444284 192.229773,50.6669477 C192.281852,50.8906022 192.307892,51.2118927 192.307892,51.6274133 L192.307892,54.9776901 Z" id="Fill-330"></path>
                    <path d="M197.107678,51.8223447 C197.097489,51.4090947 196.991066,51.0923454 196.787278,50.876638 C196.584621,50.6620659 196.337811,50.5542122 196.046846,50.5542122 C195.735502,50.5542122 195.47737,50.6677424 195.274714,50.8959381 C195.072057,51.1229986 194.971295,51.4318008 194.975824,51.8223447 L197.107678,51.8223447 Z M197.011445,53.2539608 L198.437965,53.4980508 C198.255687,54.0225604 197.966987,54.423322 197.574128,54.6957946 C197.181269,54.971673 196.68878,55.1079093 196.097793,55.1079093 C195.163762,55.1079093 194.470881,54.8013777 194.022546,54.1883145 C193.668181,53.6955933 193.490432,53.0757183 193.490432,52.3264189 C193.490432,51.4318008 193.723656,50.730184 194.190106,50.2249745 C194.656555,49.7174944 195.245278,49.464322 195.95967,49.464322 C196.760106,49.464322 197.39185,49.7299828 197.854903,50.2601689 C198.317956,50.7914903 198.539859,51.6043667 198.51948,52.7010686 L194.950916,52.7010686 C194.959974,53.1211304 195.074322,53.4503681 195.292828,53.683105 C195.511335,53.9169773 195.783053,54.0350487 196.110247,54.0350487 C196.329885,54.0350487 196.516692,53.9737424 196.668401,53.8499944 C196.818978,53.7262465 196.933326,53.5275686 197.011445,53.2539608 L197.011445,53.2539608 Z" id="Fill-331"></path>
                    <path d="M201.193526,54.9776901 L199.765874,54.9776901 L199.765874,49.5781929 L201.09616,49.5781929 L201.09616,50.3456571 C201.322592,49.9834957 201.525248,49.7462176 201.705261,49.6326874 C201.884142,49.5214277 202.089063,49.4635273 202.318891,49.4635273 C202.641556,49.4635273 202.9529,49.5543515 203.252922,49.7348646 L202.806852,50.983697 C202.569098,50.8270253 202.347195,50.7498247 202.141142,50.7498247 C201.943015,50.7498247 201.775455,50.8043192 201.637332,50.9144435 C201.499208,51.0245679 201.390521,51.2232457 201.31127,51.5093419 C201.233151,51.7977087 201.193526,52.3994188 201.193526,53.3144724 L201.193526,54.9776901 Z" id="Fill-332"></path>
                    <path d="M204.928177,52.1681578 C204.928177,52.7403501 205.037996,53.1592766 205.261032,53.4249373 C205.482935,53.690598 205.758049,53.8234284 206.082979,53.8234284 C206.431684,53.8234284 206.726045,53.6860568 206.967195,53.4147196 C207.208344,53.142247 207.328353,52.7380795 207.328353,52.2033521 C207.328353,51.6459188 207.212873,51.2303981 206.983045,50.9601962 C206.752085,50.688859 206.46112,50.553758 206.107886,50.553758 C205.765974,50.553758 205.482935,50.6865884 205.261032,50.9522491 C205.037996,51.2179098 204.928177,51.6232127 204.928177,52.1681578 M203.646574,55.3515451 L205.268957,55.5309229 C205.296129,55.7296008 205.358397,55.865837 205.459159,55.940767 C205.596151,56.0474854 205.812393,56.0997093 206.107886,56.0997093 C206.484895,56.0997093 206.767935,56.0440795 206.957005,55.9305492 C207.084939,55.854484 207.180041,55.7330067 207.245706,55.5649819 C207.28986,55.4457752 207.312503,55.2243913 207.312503,54.9008302 L207.318164,54.103848 C206.887944,54.686258 206.346772,54.9780307 205.694648,54.9780307 C204.967803,54.9780307 204.391534,54.6714991 203.966974,54.0584359 C203.63412,53.5747972 203.468825,52.9719517 203.468825,52.2521701 C203.468825,51.3484696 203.686199,50.6582058 204.123212,50.1802436 C204.559093,49.7034167 205.10253,49.4638679 205.751256,49.4638679 C206.420362,49.4638679 206.972856,49.7567759 207.409869,50.3403212 L207.409869,49.5785334 L208.740155,49.5785334 L208.740155,54.4376269 C208.740155,55.0756667 208.686944,55.5536289 208.581653,55.8692429 C208.476362,56.1859922 208.328049,56.4334881 208.137847,56.6140012 C207.947644,56.7933789 207.694041,56.9352917 207.375904,57.0363336 C207.057767,57.1396461 206.656983,57.1907347 206.170155,57.1907347 C205.251974,57.1907347 204.602115,57.0329277 204.217181,56.7195843 C203.83338,56.4062409 203.642045,56.0066145 203.642045,55.5252464 C203.642045,55.4775637 203.643177,55.4207986 203.646574,55.3515451" id="Fill-333"></path>
                    <path d="M209.613276,49.5781929 L211.122443,49.5781929 L212.41084,53.4121084 L213.668668,49.5781929 L215.145003,49.5781929 L213.252033,54.7733357 L212.903329,55.7303955 C212.778791,56.0460095 212.659915,56.2878288 212.546699,56.4547183 C212.433483,56.6216077 212.304417,56.7567087 212.157236,56.8611565 C212.010056,56.964469 211.830042,57.0450754 211.616064,57.1041111 C211.400954,57.1608762 211.158672,57.1903941 210.889219,57.1903941 C210.615236,57.1903941 210.346915,57.1608762 210.083122,57.1041111 L209.954056,55.9847032 C210.177091,56.0301152 210.377483,56.051686 210.557496,56.051686 C210.889219,56.051686 211.133765,55.9517794 211.292267,55.7542368 C211.451901,55.5544236 211.573042,55.3012512 211.656822,54.9935843 L209.613276,49.5781929 Z" id="Fill-334"></path>
                    <path d="M223.034903,52.0179573 L221.993317,49.2693907 L220.991356,52.0179573 L223.034903,52.0179573 Z M225.781519,54.9776901 L224.156872,54.9776901 L223.514938,53.2860898 L220.527171,53.2860898 L219.911277,54.9776901 L218.319462,54.9776901 L221.208731,47.5289724 L222.801678,47.5289724 L225.781519,54.9776901 Z" id="Fill-335"></path>
                    <path d="M227.826537,52.1681578 C227.826537,52.7403501 227.937489,53.1592766 228.159392,53.4249373 C228.381295,53.690598 228.65641,53.8234284 228.981339,53.8234284 C229.330044,53.8234284 229.625537,53.6860568 229.866687,53.4147196 C230.106705,53.142247 230.227846,52.7380795 230.227846,52.2033521 C230.227846,51.6459188 230.111233,51.2303981 229.881405,50.9601962 C229.650445,50.688859 229.35948,50.553758 229.006247,50.553758 C228.664335,50.553758 228.381295,50.6865884 228.159392,50.9522491 C227.937489,51.2179098 227.826537,51.6232127 227.826537,52.1681578 M226.544934,55.3515451 L228.167317,55.5309229 C228.194489,55.7296008 228.25789,55.865837 228.358652,55.940767 C228.494511,56.0474854 228.710753,56.0997093 229.006247,56.0997093 C229.383256,56.0997093 229.666295,56.0440795 229.855366,55.9305492 C229.9833,55.854484 230.078401,55.7330067 230.144066,55.5649819 C230.189352,55.4457752 230.210863,55.2243913 230.210863,54.9008302 L230.216524,54.103848 C229.786304,54.686258 229.245132,54.9780307 228.593009,54.9780307 C227.866163,54.9780307 227.289894,54.6714991 226.865335,54.0584359 C226.533612,53.5747972 226.367185,52.9719517 226.367185,52.2521701 C226.367185,51.3484696 226.584559,50.6582058 227.021573,50.1802436 C227.457454,49.7034167 228.00089,49.4638679 228.649617,49.4638679 C229.318722,49.4638679 229.871216,49.7567759 230.308229,50.3403212 L230.308229,49.5785334 L231.638515,49.5785334 L231.638515,54.4376269 C231.638515,55.0756667 231.585304,55.5536289 231.480013,55.8692429 C231.374722,56.1859922 231.227542,56.4334881 231.036207,56.6140012 C230.846004,56.7933789 230.592401,56.9352917 230.274264,57.0363336 C229.956128,57.1396461 229.555344,57.1907347 229.068515,57.1907347 C228.150335,57.1907347 227.500476,57.0329277 227.115542,56.7195843 C226.73174,56.4062409 226.540405,56.0066145 226.540405,55.5252464 C226.540405,55.4775637 226.541537,55.4207986 226.544934,55.3515451" id="Fill-336"></path>
                    <path d="M236.3886,51.8223447 C236.378411,51.4090947 236.271988,51.0923454 236.069331,50.876638 C235.865543,50.6620659 235.619864,50.5542122 235.3289,50.5542122 C235.017556,50.5542122 234.759424,50.6677424 234.556767,50.8959381 C234.352979,51.1229986 234.253349,51.4318008 234.256745,51.8223447 L236.3886,51.8223447 Z M236.291234,53.2539608 L237.718886,53.4980508 C237.536609,54.0225604 237.250173,54.423322 236.856181,54.6957946 C236.463322,54.971673 235.969701,55.1079093 235.379847,55.1079093 C234.444684,55.1079093 233.752935,54.8013777 233.3046,54.1883145 C232.949102,53.6955933 232.772485,53.0757183 232.772485,52.3264189 C232.772485,51.4318008 233.004578,50.730184 233.471027,50.2249745 C233.937477,49.7174944 234.528463,49.464322 235.240591,49.464322 C236.041027,49.464322 236.673904,49.7299828 237.135825,50.2601689 C237.598878,50.7914903 237.820781,51.6043667 237.800402,52.7010686 L234.231838,52.7010686 C234.242027,53.1211304 234.356375,53.4503681 234.57375,53.683105 C234.792256,53.9169773 235.065107,54.0350487 235.390036,54.0350487 C235.611939,54.0350487 235.797613,53.9737424 235.949322,53.8499944 C236.0999,53.7262465 236.214248,53.5275686 236.291234,53.2539608 L236.291234,53.2539608 Z" id="Fill-337"></path>
                    <path d="M243.995347,54.9776901 L242.567695,54.9776901 L242.567695,52.2257176 C242.567695,51.6421723 242.537127,51.2663872 242.477122,51.0949566 C242.415986,50.9246613 242.31862,50.7906956 242.181629,50.6964655 C242.046902,50.6022354 241.882739,50.5545527 241.692537,50.5545527 C241.446858,50.5545527 241.226087,50.6215356 241.031356,50.7577718 C240.836625,50.8928728 240.70303,51.0722505 240.631704,51.2959051 C240.559246,51.5195596 240.524149,51.9316743 240.524149,52.5356551 L240.524149,54.9776901 L239.096497,54.9776901 L239.096497,49.5781929 L240.426783,49.5781929 L240.426783,50.3706338 C240.894365,49.766653 241.483087,49.4635273 242.192951,49.4635273 C242.505426,49.4635273 242.791863,49.5214277 243.049995,49.634958 C243.309259,49.7484882 243.505122,49.8926716 243.638717,50.0686434 C243.772312,50.2446152 243.864017,50.4444284 243.916096,50.6669477 C243.968175,50.8906022 243.995347,51.2118927 243.995347,51.6274133 L243.995347,54.9776901 Z" id="Fill-338"></path>
                    <path d="M250.302603,51.1720436 L248.891933,51.4320278 C248.84325,51.1516082 248.735695,50.9415773 248.569268,50.7985292 C248.401708,50.6577517 248.184334,50.5862277 247.917144,50.5862277 C247.562779,50.5862277 247.278607,50.7099756 247.068026,50.9540656 C246.856312,51.1992909 246.749889,51.6102703 246.749889,52.1847332 C246.749889,52.8250436 246.858576,53.2768939 247.073686,53.5414193 C247.288796,53.8048094 247.577497,53.9376398 247.94092,53.9376398 C248.211506,53.9376398 248.433409,53.8581686 248.606629,53.7026322 C248.778717,53.5470958 248.90099,53.2768939 248.972316,52.8965677 L250.367136,53.1395223 C250.222219,53.7900505 249.943708,54.2793657 249.531603,54.6120093 C249.119497,54.9423822 248.567004,55.1081363 247.874122,55.1081363 C247.087272,55.1081363 246.460056,54.8595052 245.991343,54.3611075 C245.524893,53.8627098 245.290537,53.1724461 245.290537,52.2914516 C245.290537,51.4002394 245.526026,50.7054344 245.995871,50.2093073 C246.465717,49.7131803 247.10199,49.4645491 247.903559,49.4645491 C248.559078,49.4645491 249.081004,49.6053266 249.468202,49.8857462 C249.8554,50.1673012 250.132779,50.5964454 250.302603,51.1720436" id="Fill-339"></path>
                    <path d="M250.835849,49.5781929 L252.343885,49.5781929 L253.633413,53.4121084 L254.891241,49.5781929 L256.367576,49.5781929 L254.474607,54.7733357 L254.127034,55.7303955 C254.000233,56.0460095 253.882488,56.2878288 253.769272,56.4547183 C253.656056,56.6216077 253.525858,56.7567087 253.37981,56.8611565 C253.232629,56.964469 253.052616,57.0450754 252.837506,57.1041111 C252.622396,57.1608762 252.382378,57.1903941 252.11066,57.1903941 C251.838942,57.1903941 251.569488,57.1608762 251.305695,57.1041111 L251.176629,55.9847032 C251.399664,56.0301152 251.601189,56.051686 251.78007,56.051686 C252.11066,56.051686 252.356338,55.9517794 252.515973,55.7542368 C252.673343,55.5544236 252.795616,55.3012512 252.880528,54.9935843 L250.835849,49.5781929 Z" id="Fill-340"></path>
                </g>
            </g>
        </g>
    </g>
</svg>