<?xml version="1.0" encoding="UTF-8"?>
<svg width="17px" height="18px" viewBox="0 0 17 18" version="1.1" xmlns="http://www.w3.org/2000/svg" xmlns:xlink="http://www.w3.org/1999/xlink">
    <!-- Generator: sketchtool 60 (101010) - https://sketch.com -->
    <title>27F1DB04-BA96-4243-B2D9-80AD3831D0BC</title>
    <desc>Created with sketchtool.</desc>
    <g id="Design" stroke="none" stroke-width="1" fill="none" fill-rule="evenodd">
        <g id="Technical-Data_tableview" transform="translate(-46.000000, -648.000000)">
            <g id="Group-8-" transform="translate(24.000000, 420.000000)">
                <g id="Group-7-Copy-5" transform="translate(1.000000, 216.000000)">
                    <g id="Group-3" transform="translate(20.000000, 9.000000)">
                        <g id="Fuel-Cycle-Copy-3" transform="translate(0.594427, 0.594427)">
                            <polygon id="Path" points="0 0 21.3993808 0 21.3993808 21.3993808 0 21.3993808"></polygon>
                            <g id="Group-8" stroke-linecap="round" stroke-linejoin="round" transform="translate(1.783282, 1.783282)">
                                <g id="1505662" transform="translate(8.663138, 8.918515) rotate(7.000000) translate(-8.663138, -8.918515) translate(1.163138, 1.418515)" fill-rule="nonzero">
                                    <path d="M7.29017532,3.02617196 C5.77699113,1.93004822 5.00413955,1.3771247 4.97162058,1.36740139 L0.601508439,0 L0,1.67085145 L3.9534637,3.02617196 L6.26750672,4.75655786" id="Path" fill="#0C0C0C"></path>
                                    <path d="M12.4183401,12.9506457 C12.1829589,13.1060276 11.2357834,13.5230729 9.57681362,14.2017817 C9.12103695,14.3882832 8.60038254,14.1699567 8.41391238,13.7141671 C8.41370147,13.7136517 8.41349104,13.713136 8.4132811,13.7126201 C8.35667643,13.6130795 8.31605641,13.5034994 8.29425996,13.387783 L7.92140562,11.7999282 L7.00926421,8.18775426 L7.06944835,8.1717436 L6.26750672,4.75655786 L7.35274481,3.095818 L8.31550048,3.74637191 C8.42020873,3.83584074 8.57604364,3.82288845 8.66527514,3.71731084 L9.25179082,3.02539668 C9.31839425,2.94659443 9.41296249,2.89805048 9.51468221,2.89032267 C9.61640185,2.88259482 9.71694738,2.91644496 9.79422438,2.98436292 L12.4287951,5.31207671 C12.5888994,5.45379016 12.6062975,5.70086348 12.4677538,5.86445434 L12.196537,6.18390819 C12.1347367,6.25650637 12.1182993,6.35838331 12.154056,6.44730796 L14.5150617,12.3222112 C14.5848672,12.4958156 14.5033207,12.6943451 14.3329696,12.7654194 L13.0681452,13.2946135 C12.9862784,13.3287902 12.8944853,13.3284636 12.8128321,13.293525 C12.7312856,13.2586953 12.6666034,13.1920835 12.633195,13.108601 C12.6076851,13.044819 12.5579459,12.9944248 12.4953985,12.968629 C12.4705842,12.9583952 12.4445604,12.9524098 12.4183401,12.9506457 Z M12.4183401,12.9506457 C12.4606224,12.922734 12.4799364,12.9032657 12.4762822,12.8922407 L10.9945802,8.30166409 C10.8027751,7.7284975 10.2306688,7.38281251 9.64554077,7.48643093 L7.06944835,8.1717436 L7.92140562,11.7999282 L8.37465558,13.5948447 C8.38478347,13.6349523 8.39768991,13.6743057 8.4132811,13.7126201 C8.50857686,13.8801997 8.64917757,14.0193245 8.821537,14.1113704 C9.09616935,14.2580906 9.42139465,14.2690838 9.70499288,14.141411 L12.300925,12.9717855 C12.3381431,12.9550417 12.3784688,12.9479632 12.4183401,12.9506457 Z" id="Combined-Shape" stroke="#0C0C0C" stroke-width="0.891640867" fill="#0C0C0C"></path>
                                    <path d="M8.74383301,7.80185759 C9.81673242,10.0767537 10.2873616,11.5298825 10.1557205,12.1612439" id="Path-16" stroke="#0C0C0C" stroke-width="0.891640867"></path>
                                </g>
                                <path d="M2.6749226,8.30407972 C2.6749226,9.13664744 2.06697632,9.80804954 1.33744991,9.80804954 C0.607923483,9.80804954 0,9.1366223 0,8.30407972 C0,7.47153714 1.3374727,5.3498452 1.3374727,5.3498452 C1.3374727,5.3498452 2.6749226,7.47151196 2.6749226,8.30407972 Z" id="Path" stroke="#FFFFFF" stroke-width="0.891640867" fill="#0C0C0C" fill-rule="nonzero"></path>
                                <path d="M4.45820433,13.9472197 C4.45820433,14.6343538 3.86376548,15.1578947 3.12074303,15.1578947 C2.37772059,15.1578947 1.78328173,14.6016535 1.78328173,13.9472197 C1.78328173,13.2600856 3.12074303,11.5913313 3.12074303,11.5913313 C3.12074303,11.5913313 4.45820433,13.2600856 4.45820433,13.9472197 Z" id="Path" stroke="#FFFFFF" stroke-width="0.891640867" fill="#0C0C0C" fill-rule="nonzero"></path>
                                <line x1="14.7120743" y1="17.3869969" x2="14.3245952" y2="15.1578947" id="Path-17" stroke="#0C0C0C" stroke-width="1.3374613"></line>
                            </g>
                        </g>
                    </g>
                </g>
            </g>
        </g>
    </g>
</svg>