<?xml version="1.0" encoding="UTF-8"?>
<svg width="20px" height="21px" viewBox="0 0 20 21" version="1.1" xmlns="http://www.w3.org/2000/svg" xmlns:xlink="http://www.w3.org/1999/xlink">
    <!-- Generator: sketchtool 64 (101010) - https://sketch.com -->
    <title>25E1834E-E1D8-4069-AAAE-2FC431EB2E94@1x</title>
    <desc>Created with sketchtool.</desc>
    <g id="Style-Guide" stroke="none" stroke-width="1" fill="none" fill-rule="evenodd">
        <g id="Aris-Brand-Design-Style-Guide" transform="translate(-62.000000, -8903.000000)">
            <g id="Group-8" transform="translate(61.000000, 8902.000000)">
                <g id="Site--Copy">
                    <polygon id="Path" points="0 0 24 0 24 24 0 24"></polygon>
                    <g id="3238402" transform="translate(1.000000, 2.000000)">
                        <polygon id="Path" fill="#0C0C0C" fill-rule="nonzero" points="2.69986432 5.20267442 1.81818182 19.2026744 6.99369805 19.2026744 5.81814472 5.20267442"></polygon>
                        <line x1="2.78390746" y1="4.07215872" x2="5.70608721" y2="4.07215872" id="Path" stroke="#0C0C0C" stroke-width="1.5" stroke-linecap="round" stroke-linejoin="round"></line>
                        <path d="M-1.42108547e-14,0 C0.536723935,0.892235457 1.28374845,1.18881376 2.24107354,0.889734898 C3.67706119,0.441116611 4.16024253,0.889734898 4.48214709,1.7794698" id="Path-11" stroke="#0C0C0C" stroke-linecap="round"></path>
                        <polyline id="Path" fill="#0C0C0C" fill-rule="nonzero" points="5.9614577 19.2026744 19.9614577 19.2026744 19.9614577 9.20267442 18.1133339 9.20267442 15.0173958 12.3498136 15.0173958 9.20267442 13.4356876 9.20267442 10.172191 12.5013362 10.172191 9.20267442 8.58882581 9.20267442 5.9614577 11.8845201"></polyline>
                        <rect id="Rectangle" fill="#FFFFFF" fill-rule="nonzero" x="9.09090909" y="14.5454545" width="1.81818182" height="1.81818182"></rect>
                        <rect id="Rectangle" fill="#FFFFFF" fill-rule="nonzero" x="14.5454545" y="14.5454545" width="1.81818182" height="1.81818182"></rect>
                    </g>
                </g>
            </g>
        </g>
    </g>
</svg>