<svg width="160" height="41" viewBox="0 0 160 41" fill="none" xmlns="http://www.w3.org/2000/svg">
<path fill-rule="evenodd" clip-rule="evenodd" d="M3.02968 17.4635C3.23175 16.8037 3.30515 16.454 3.50061 16.0441C3.65319 15.725 4.53979 14.6347 5.17649 13.5163C5.7901 12.4895 6.27669 11.2631 6.57937 10.3237C5.20123 11.6722 3.71092 12.6083 3.13113 14.5481C3.4701 13.0767 3.18144 11.9674 2.98432 10.4474C2.81525 9.50146 3.20288 8.63218 3.34391 7.77197C2.80865 8.34517 2.49937 9.06187 2.24618 9.75053C1.07669 12.3914 2.33195 14.9571 2.89525 17.3654L3.02968 17.4635Z" fill="#0067A5"/>
<path fill-rule="evenodd" clip-rule="evenodd" d="M3.78781 12.3963C4.18204 11.8223 4.96472 11.0825 5.31441 10.8318C5.66492 10.5811 8.10039 8.19342 8.52265 6.55878C7.3408 7.99301 5.39936 8.39466 4.58286 10.2008C4.91523 8.64538 5.30946 6.53734 5.45544 6.10023L5.87771 5.01074C4.81296 5.82146 4.06905 7.08249 3.76966 8.38394C3.68472 8.7526 3.49503 9.68868 3.67812 11.1872C3.7441 11.7274 3.73255 12.0285 3.78781 12.3963Z" fill="#0067A5"/>
<path fill-rule="evenodd" clip-rule="evenodd" d="M5.44522 8.34683C7.38666 7.45776 8.34336 5.3357 9.5813 3.75879C7.6679 4.38972 6.19243 5.84126 5.60027 7.5658C5.44027 8.03178 5.44027 8.22642 5.44522 8.34683Z" fill="#0067A5"/>
<path fill-rule="evenodd" clip-rule="evenodd" d="M31.3868 31.2715C30.3798 31.4983 29.7943 31.6476 28.6701 31.9989C30.0491 31.4719 30.558 30.7602 31.0833 29.8166C31.687 28.7313 31.9303 27.4736 32.2462 26.2769C31.3407 27.0909 30.125 28.4006 29.2392 29.5676C28.5002 30.5408 28.2025 31.3218 28.0714 31.4892C27.9394 31.6566 27.4677 32.2562 26.9976 32.3255C27.0091 32.3717 27.0677 32.4566 27.1097 32.469C28.8268 32.7841 30.7402 33.4719 32.5126 32.8121C34.0887 32.2678 35.5963 31.0373 36.4004 29.6261C36.4004 29.6261 35.3382 30.1383 35.0083 30.2769C34.7015 30.4063 32.5266 31.0876 31.3868 31.2715Z" fill="#0067A5"/>
<path fill-rule="evenodd" clip-rule="evenodd" d="M38.2534 25.0702C36.9577 26.5671 34.7614 27.6021 33.4386 29.0867C32.9759 29.6054 32.9041 29.626 32.6782 29.763C34.9462 27.2698 34.4621 25.2013 34.7441 22.6636C34.7441 22.6636 33.6835 24.5448 32.9437 26.4005C32.3895 27.7926 32.1157 29.2508 32.0629 29.4578C31.94 29.9411 31.8089 30.1745 31.6406 30.4896C31.6918 30.5093 31.78 30.5209 31.78 30.5209C32.105 30.4211 32.2394 30.3147 32.9561 30.2025C34.5528 29.9535 36.1033 29.5337 37.3949 27.8718C38.2105 26.8104 38.872 25.2995 39.1821 23.9799C38.7878 24.2388 38.5907 24.7551 38.2534 25.0702Z" fill="#0067A5"/>
<path fill-rule="evenodd" clip-rule="evenodd" d="M39.4385 20.3587C38.9486 21.0646 38.4941 21.5059 37.7906 22.282C37.1144 23.0292 36.3482 24.4024 35.9523 25.157C36.0084 24.6976 36.1849 24.3686 36.3259 23.91C36.8042 22.0172 36.396 19.8514 35.9746 18.0444C35.3461 19.2692 35.1993 20.7512 35.2191 22.1401C35.2348 23.1851 35.3511 24.1805 35.3882 24.9549C35.4096 25.4176 35.2108 26.0436 35.0459 26.5038C35.1102 26.5475 35.1762 26.5401 35.2141 26.5327C37.2001 24.6424 38.782 24.1484 39.5696 22.1698C39.789 21.6857 40.1725 20.6473 40.2805 20.0543C40.4216 19.2758 40.3737 18.6622 40.3737 18.6622C40.3737 18.6622 40.0834 19.43 39.4385 20.3587Z" fill="#0067A5"/>
<path fill-rule="evenodd" clip-rule="evenodd" d="M40.308 12.9775C40.233 13.234 40.2322 13.6984 40.0483 14.1173C39.1872 16.0786 38.3658 17.9582 37.9716 20.1091C38.2734 17.526 35.96 14.3986 35.96 14.3986C35.9138 14.5874 35.8907 14.8068 35.8957 15.267C35.9015 15.7338 36.0037 16.458 36.2206 17.3124C36.4903 18.3367 36.9175 19.4996 37.4091 20.5107C37.5221 20.8835 37.5221 21.3998 37.4091 21.7437H37.5501C38.1085 20.7367 38.9654 19.7932 39.5856 18.7977C40.0598 18.0365 40.3856 17.2505 40.5324 16.5363C40.9563 14.4736 40.5678 14.1173 40.308 12.9775Z" fill="#0067A5"/>
<path fill-rule="evenodd" clip-rule="evenodd" d="M38.0847 10.5138C37.8876 12.0338 37.7045 13.209 38.0435 14.6812C37.4637 12.7406 35.9742 11.8045 34.5952 10.4569C34.8946 11.3831 35.3779 12.5459 35.9841 13.5769C36.7461 14.8734 37.5387 15.7476 37.6756 16.0189C37.9692 16.6004 38.0476 16.9897 38.1886 17.449L38.2843 17.3732C38.8476 14.9649 39.9981 12.4066 38.9284 9.88285C38.6752 9.19502 38.3659 8.47749 37.8315 7.9043C37.9717 8.7645 38.2529 9.5678 38.0847 10.5138Z" fill="#0067A5"/>
<path fill-rule="evenodd" clip-rule="evenodd" d="M36.5921 10.3332C35.7756 8.52698 33.8342 8.12451 32.6523 6.69193C33.0746 8.32657 35.5101 10.7134 35.8606 10.9641C36.2103 11.2148 36.993 11.9546 37.3872 12.5286C37.4424 12.1608 37.4309 11.8598 37.4969 11.3196C37.68 9.82018 37.4903 8.8841 37.4053 8.51626C37.106 7.21399 36.362 5.95296 35.2973 5.14307L35.7196 6.23255C35.8655 6.66966 36.2598 8.77688 36.5921 10.3332Z" fill="#0067A5"/>
<path fill-rule="evenodd" clip-rule="evenodd" d="M35.7772 8.47915C35.783 8.35874 35.783 8.16493 35.6221 7.69895C35.03 5.97359 33.5545 4.52204 31.6411 3.89111C32.8791 5.46802 33.8358 7.59008 35.7772 8.47915Z" fill="#0067A5"/>
<path fill-rule="evenodd" clip-rule="evenodd" d="M30.5268 33.9632C29.2897 33.7315 27.7424 33.2012 26.3239 32.9455C25.4323 32.7847 24.4204 32.6057 23.2707 32.7525C22.2447 32.8845 21.4901 32.9999 20.8014 33.188C20.7074 33.1748 18.6925 32.6659 17.7062 32.5876C16.7206 32.51 15.7499 32.6651 14.9317 32.8127C13.5123 33.0692 11.9651 33.5987 10.728 33.8313C9.71523 33.9459 8.70245 33.8313 7.85791 33.5723C8.58946 34.2041 9.46203 34.548 10.3907 34.8061C14.1499 35.8469 17.5429 33.6746 18.54 33.4948C19.3119 33.3554 19.4455 33.3414 20.0319 33.428L19.7779 33.5047C18.2018 34.1925 16.5705 35.0824 15.3886 36.5158C15.6509 36.7377 16.1433 36.9183 16.1433 36.9183C16.1433 36.9183 16.3552 36.3129 17.5833 35.2828C18.6167 34.4144 20.0394 33.8568 20.8154 33.6243C21.6286 33.8956 22.8088 34.4259 23.6723 35.15C24.8996 36.181 25.1123 36.7855 25.1123 36.7855C25.1123 36.7855 25.6039 36.6057 25.867 36.383C24.761 35.0412 23.1824 34.1274 21.7029 33.4577C21.9412 33.456 22.2521 33.5434 22.7156 33.6267C23.7128 33.8065 27.1057 35.9789 30.8649 34.9389C31.7928 34.6808 32.6653 34.336 33.3969 33.7051C32.5532 33.9632 31.5404 34.0779 30.5268 33.9632Z" fill="#0067A5"/>
<path fill-rule="evenodd" clip-rule="evenodd" d="M26.9671 19.097C26.5019 18.4876 25.871 17.836 25.1065 17.182C25.1452 17.0096 25.184 16.8364 25.2211 16.6624C25.4388 15.6381 25.6129 14.6327 25.7473 13.6587C28.7584 13.8146 30.8417 14.5676 30.991 15.7535C31.1312 16.8669 29.5329 18.1049 26.9671 19.097ZM27.3217 20.4636C27.1576 20.5593 27.0454 20.7358 27.0454 20.9403C27.0454 21.1102 27.123 21.2595 27.2434 21.3618C26.9852 21.7387 26.3964 21.8847 25.5848 21.8245C25.4776 21.2587 25.3358 20.6632 25.1626 20.0438C25.7498 19.8723 26.3073 19.6876 26.831 19.4921C27.0702 19.8434 27.2376 20.1709 27.3217 20.4636ZM24.5795 26.509C23.9675 26.782 23.1155 26.4043 22.1687 25.5449C22.7287 24.4834 23.2632 23.2513 23.7489 21.8937C24.2892 22.057 24.7939 22.1742 25.2541 22.2434C25.6533 24.4876 25.4545 26.1197 24.5795 26.509ZM17.8958 29.2224C16.252 29.0715 15.443 25.8385 15.6104 21.3973C15.8405 21.4072 16.0731 21.4129 16.3106 21.4154C16.4285 21.5919 16.5943 21.6496 16.7749 21.643C17.0026 21.6348 17.2137 21.5333 17.2475 21.2636C17.6533 21.2521 18.0698 21.2331 18.4929 21.2067C19.5461 23.0649 20.6859 24.594 21.7514 25.615C20.4698 27.9647 19.0735 29.3304 17.8958 29.2224ZM9.99967 18.8447C9.86194 17.7461 11.4529 16.5181 13.9898 15.5276C14.3856 16.0595 14.9168 16.6286 15.5584 17.2059C15.363 18.4669 15.2343 19.6801 15.1708 20.8216C12.2487 20.6608 10.1456 20.0026 9.99967 18.8447ZM13.7226 13.2975C13.9527 12.909 14.5118 12.749 15.292 12.7894C15.3984 13.3601 15.5395 13.9614 15.7143 14.5865C15.1659 14.7482 14.6438 14.9214 14.1522 15.1045C13.6467 14.3589 13.471 13.7222 13.7226 13.2975ZM15.5098 11.4525C15.7283 11.3775 15.8677 11.1622 15.8677 10.9123C15.8677 10.7028 15.8108 10.5659 15.584 10.4529C15.6277 9.4154 15.8059 8.6121 16.3452 8.3721C16.7395 8.19725 17.2318 8.29292 17.7852 8.6121C17.3102 9.83684 16.883 11.1911 16.5011 12.6748C16.2017 12.6113 15.9172 12.5634 15.6492 12.5337C15.5856 12.1544 15.5378 11.7923 15.5098 11.4525ZM24.5085 18.0315C24.3485 17.596 24.1745 17.1556 23.9873 16.7102C24.2298 16.8933 24.4615 17.0773 24.6826 17.2595C24.6265 17.5193 24.5687 17.7775 24.5085 18.0315ZM24.7395 18.6847C24.8384 18.3111 24.9325 17.9325 25.0224 17.5482C25.6887 18.1288 26.2355 18.697 26.6355 19.2224C26.1448 19.4014 25.6236 19.5729 25.0735 19.7321C24.972 19.389 24.8607 19.0393 24.7395 18.6847ZM24.3939 19.9185C24.4417 19.7568 24.4896 19.5944 24.5366 19.4302C24.5811 19.5696 24.6248 19.709 24.6661 19.8459C24.5762 19.8707 24.4854 19.8946 24.3939 19.9185ZM24.2834 20.2855C24.4434 20.2443 24.6026 20.2022 24.7593 20.1585C24.9226 20.7218 25.057 21.2628 25.1634 21.7766C24.7758 21.7206 24.3477 21.6257 23.8892 21.4937C24.0252 21.1003 24.1564 20.6979 24.2834 20.2855ZM21.951 20.7902C22.6133 20.6723 23.2558 20.5379 23.8727 20.3878C23.7696 20.73 23.6623 21.0649 23.5518 21.3915C23.0471 21.2323 22.5094 21.0311 21.951 20.7902ZM17.7333 18.9016C18.1811 19.2076 18.6545 19.5094 19.1485 19.8014C19.6706 20.1107 20.1902 20.3935 20.7007 20.65C20.0269 20.7441 19.3663 20.815 18.7246 20.8636C18.3832 20.2443 18.0508 19.5869 17.7333 18.9016ZM17.1205 18.4669C17.1617 18.5618 17.203 18.6566 17.2459 18.7507C17.5856 19.5012 17.9461 20.2162 18.318 20.8925C17.9535 20.9156 17.5955 20.9329 17.245 20.9412C17.2054 20.7399 17.0191 20.5626 16.7535 20.5882C16.5052 20.6113 16.4038 20.6558 16.2982 20.8587C16.0739 20.8562 15.8529 20.8504 15.6368 20.843C15.6937 19.8014 15.8026 18.6987 15.965 17.5606C16.323 17.8632 16.7089 18.1667 17.1205 18.4669ZM16.1951 16.1239C16.3807 16.6591 16.5869 17.2059 16.8162 17.7593C16.5399 17.5449 16.2776 17.3304 16.0302 17.1168C16.0813 16.7886 16.1366 16.4579 16.1951 16.1239ZM15.9081 15.2504C15.8059 15.7593 15.7127 16.2632 15.6302 16.7597C15.1164 16.2847 14.6859 15.822 14.3568 15.3882C14.8129 15.2199 15.2978 15.0599 15.8059 14.909C15.8388 15.022 15.8735 15.1358 15.9081 15.2504ZM16.0788 14.4463C15.9238 13.8814 15.7984 13.3395 15.7019 12.8274C15.9304 12.8562 16.1737 12.8991 16.4294 12.956C16.3081 13.4393 16.1918 13.9358 16.0788 14.4463ZM19.0083 13.8162C18.1522 13.968 17.3283 14.1494 16.5489 14.354C16.6454 13.9152 16.7469 13.483 16.8541 13.0591C17.5122 13.2331 18.2405 13.488 19.0083 13.8162ZM20.0186 13.6521C19.871 13.6744 19.725 13.6966 19.5791 13.7206C18.6364 13.2999 17.7374 12.9816 16.9267 12.7754C17.2912 11.3676 17.7094 10.0504 18.163 8.8587C19.2904 9.67519 20.6149 11.3107 21.8529 13.436C21.2541 13.4896 20.6413 13.5614 20.0186 13.6521ZM21.9749 14.9626C21.3489 14.5915 20.7254 14.2599 20.1168 13.968C20.1209 13.9671 20.125 13.9671 20.1292 13.9663C20.7758 13.8707 21.41 13.7981 22.0285 13.7428C22.3609 14.3309 22.6859 14.9527 22.9976 15.6018C22.6685 15.3849 22.3271 15.1713 21.9749 14.9626ZM23.2797 16.2047C23.6805 17.0855 24.0277 17.954 24.3205 18.7919C24.2125 19.2109 24.0995 19.6224 23.9815 20.0241C23.1659 20.2253 22.3015 20.401 21.4034 20.5453C20.7098 20.2228 19.9906 19.8459 19.2656 19.4162C18.6092 19.0278 17.9931 18.6236 17.424 18.2129C16.9943 17.2257 16.6339 16.2583 16.3428 15.3379C16.3584 15.2603 16.3733 15.1828 16.3889 15.1045C16.4153 14.9758 16.4426 14.848 16.4698 14.7201C17.4322 14.4603 18.4665 14.2352 19.5477 14.057C20.2628 14.3861 21.0042 14.7737 21.7514 15.2158C22.2875 15.5333 22.7964 15.8616 23.2747 16.194C23.2764 16.1973 23.278 16.2014 23.2797 16.2047ZM18.9003 21.1787C19.5617 21.1284 20.2405 21.0566 20.9333 20.956C21.0339 20.9412 21.1353 20.9255 21.2351 20.9098C21.9955 21.2678 22.7304 21.563 23.4166 21.789C22.9547 23.1061 22.4467 24.2896 21.9155 25.3057C20.944 24.354 19.89 22.9222 18.9003 21.1787ZM24.7609 16.8925C24.4351 16.6278 24.0887 16.363 23.7234 16.1016C23.6945 16.0381 23.6681 15.9746 23.6393 15.9119C23.2879 15.1366 22.9151 14.3985 22.53 13.7032C23.5098 13.6331 24.4417 13.6133 25.3061 13.6406C25.1807 14.6311 25.0125 15.6562 24.8005 16.702C24.7873 16.7655 24.7741 16.829 24.7609 16.8925ZM21.7704 2.98158C21.857 3.03189 21.9931 3.07065 22.1011 3.07065C22.3964 3.07065 22.6372 2.89251 22.6784 2.6088C22.8854 2.56096 23.0966 2.54612 23.2945 2.58406C25.2516 2.95519 26.0384 7.50447 25.3448 13.3304C24.4137 13.2966 23.41 13.3164 22.356 13.3948C21.0487 11.1003 19.6112 9.31725 18.3502 8.3787C19.3935 5.77004 20.6034 3.83107 21.7704 2.98158ZM31.4355 15.6991C31.2698 14.3787 29.0207 13.53 25.7885 13.3502C26.5869 7.18117 25.7085 2.34323 23.5287 1.90859C23.1749 1.83849 22.7856 1.83272 22.3922 1.93416C22.2875 1.84014 22.1605 1.81787 22.0087 1.81787C21.6838 1.81787 21.4207 2.08014 21.4207 2.40344C21.4207 2.46529 21.4322 2.52303 21.4496 2.57828C20.0929 3.92426 18.9432 5.77251 17.9799 8.12468C17.2582 7.67272 16.6092 7.52344 16.0962 7.75107C15.3877 8.06612 14.9267 9.11189 14.9275 10.5173C14.7659 10.6055 14.7246 10.7993 14.7329 10.9445C14.7452 11.168 14.9061 11.3453 15.0974 11.4335C15.1296 11.7725 15.1782 12.1304 15.2409 12.5024C14.3032 12.4587 13.6211 12.6632 13.3349 13.1465C13.0331 13.6562 13.2228 14.3952 13.7885 15.2439C11.0603 16.316 9.36132 17.6752 9.51555 18.9082C9.67967 20.2212 11.9386 21.1647 15.1444 21.3725C14.9704 25.9226 15.8619 29.2142 17.6591 29.6323C18.9993 29.9441 20.5753 28.4537 22.0046 25.85C23.0834 26.8142 24.0698 27.2307 24.7889 26.9115C25.7869 26.4686 26.0558 24.7012 25.6673 22.2937C26.6982 22.3869 27.4487 22.1973 27.7539 21.6818C27.7935 21.6158 27.8397 21.5218 27.8628 21.4476C28.0632 21.3643 28.1729 21.1622 28.1729 20.9313C28.1729 20.6698 27.9716 20.4603 27.7275 20.4026C27.6096 20.081 27.4182 19.7321 27.1634 19.3643C29.8908 18.2921 31.5898 16.9329 31.4355 15.6991Z" fill="#0067A5"/>
<path fill-rule="evenodd" clip-rule="evenodd" d="M21.5322 19.1854C21.5322 19.5854 21.8572 19.9103 22.2572 19.9103C22.658 19.9103 22.9821 19.5854 22.9821 19.1854C22.9821 18.7854 22.658 18.4604 22.2572 18.4604C21.8572 18.4604 21.5322 18.7854 21.5322 19.1854Z" fill="#0067A5"/>
<mask id="mask0" style="mask-type:alpha" maskUnits="userSpaceOnUse" x="0" y="0" width="160" height="41">
<path fill-rule="evenodd" clip-rule="evenodd" d="M0.428711 40.0124H159.404V0.379395H0.428711V40.0124Z" fill="white"/>
</mask>
<g mask="url(#mask0)">
<path fill-rule="evenodd" clip-rule="evenodd" d="M47.6519 26.4296H50.4576V12.5195H47.6519V26.4296Z" fill="#0067A5"/>
<path fill-rule="evenodd" clip-rule="evenodd" d="M62.9012 20.9171L60.9795 15.7632L59.0958 20.9171H62.9012ZM68.0542 26.4296H65.001L63.8068 23.2651H58.2381L57.0818 26.4296H54.1045L59.5263 12.5195H62.5127L68.0542 26.4296Z" fill="#0067A5"/>
<path fill-rule="evenodd" clip-rule="evenodd" d="M71.9321 26.4296V12.5195H82.2406V14.8676H74.7379V17.9521H81.7226V20.3001H74.7379V24.0816H82.4996V26.4296H71.9321Z" fill="#0067A5"/>
<path fill-rule="evenodd" clip-rule="evenodd" d="M94.66 20.9171L92.7383 15.7632L90.8546 20.9171H94.66ZM99.813 26.4296H96.7598L95.5664 23.2651H89.9969L88.8406 26.4296H85.8633L91.2851 12.5195H94.2707L99.813 26.4296Z" fill="#0067A5"/>
<path fill-rule="evenodd" clip-rule="evenodd" d="M47.5942 35.0762H48.5221V30.5063H47.5942V35.0762Z" fill="#0067A5"/>
<path fill-rule="evenodd" clip-rule="evenodd" d="M52.4814 35.0765H51.603V33.3874C51.603 33.0303 51.5841 32.7993 51.5478 32.6938C51.5107 32.589 51.4496 32.5074 51.3663 32.4496C51.283 32.3919 51.1816 32.3622 51.0645 32.3622C50.9135 32.3622 50.7783 32.4043 50.6587 32.4868C50.5391 32.5701 50.4566 32.6806 50.4121 32.8175C50.3684 32.9544 50.3461 33.2076 50.3461 33.5779V35.0765H49.4678V31.7635H50.2859V32.2501C50.5738 31.8789 50.9358 31.6934 51.3729 31.6934C51.5651 31.6934 51.7416 31.728 51.9008 31.7981C52.0599 31.8674 52.1804 31.9565 52.2628 32.0645C52.3445 32.1725 52.4014 32.2946 52.4335 32.4323C52.4657 32.5692 52.4814 32.7655 52.4814 33.0212V35.0765Z" fill="#0067A5"/>
<path fill-rule="evenodd" clip-rule="evenodd" d="M54.9852 31.7637V32.4622H54.3864V33.8C54.3864 34.0705 54.3922 34.228 54.4037 34.2734C54.4153 34.3179 54.4408 34.355 54.4813 34.3839C54.5217 34.4136 54.5712 34.4284 54.6289 34.4284C54.7097 34.4284 54.8268 34.4004 54.9802 34.3435L55.0454 35.0247C54.8433 35.1121 54.614 35.1567 54.3592 35.1567C54.2017 35.1567 54.0606 35.1294 53.9353 35.0767C53.8091 35.0231 53.7167 34.9546 53.6582 34.8705C53.5996 34.7855 53.5592 34.6717 53.5361 34.5282C53.518 34.4259 53.5081 34.2189 53.5081 33.9088V32.4622H53.1089V31.7637H53.5081V31.1047L54.3864 30.5859V31.7637H54.9852Z" fill="#0067A5"/>
<path fill-rule="evenodd" clip-rule="evenodd" d="M57.65 33.1404C57.6442 32.8864 57.5782 32.6934 57.4537 32.5607C57.3283 32.4287 57.1766 32.3627 56.9976 32.3627C56.8054 32.3627 56.6471 32.432 56.5225 32.5714C56.398 32.7116 56.3361 32.9013 56.3386 33.1404H57.65ZM57.5906 34.0188L58.4681 34.1681C58.3559 34.4905 58.1794 34.7355 57.937 34.9037C57.6953 35.072 57.3926 35.1561 57.0289 35.1561C56.4541 35.1561 56.0277 34.9681 55.7522 34.592C55.5337 34.2901 55.4248 33.9099 55.4248 33.4497C55.4248 32.9013 55.5683 32.4708 55.8553 32.1598C56.1423 31.8489 56.5044 31.6938 56.9432 31.6938C57.4364 31.6938 57.8248 31.8563 58.1102 32.1821C58.3947 32.5087 58.5308 33.0068 58.5184 33.679H56.3229C56.3287 33.938 56.3997 34.1392 56.5333 34.2827C56.6677 34.4262 56.8351 34.498 57.0355 34.498C57.1716 34.498 57.2862 34.46 57.3794 34.3842C57.4726 34.3083 57.5427 34.187 57.5906 34.0188Z" fill="#0067A5"/>
<path fill-rule="evenodd" clip-rule="evenodd" d="M60.0361 35.0765H59.1577V31.7635H59.9759V32.2344C60.1144 32.0117 60.2398 31.8666 60.3503 31.7973C60.4616 31.728 60.587 31.6934 60.728 31.6934C60.9268 31.6934 61.119 31.7494 61.3029 31.86L61.0291 32.6253C60.8823 32.5296 60.7453 32.4818 60.6192 32.4818C60.4971 32.4818 60.394 32.5156 60.3091 32.5833C60.2241 32.6501 60.1573 32.7729 60.1086 32.9486C60.06 33.1251 60.0361 33.4946 60.0361 34.0562V35.0765Z" fill="#0067A5"/>
<path fill-rule="evenodd" clip-rule="evenodd" d="M64.7763 35.0765H63.898V33.3874C63.898 33.0303 63.8798 32.7993 63.8427 32.6938C63.8056 32.589 63.7446 32.5074 63.6613 32.4496C63.578 32.3919 63.4773 32.3622 63.3594 32.3622C63.2085 32.3622 63.0732 32.4043 62.9536 32.4868C62.834 32.5701 62.7516 32.6806 62.7078 32.8175C62.6633 32.9544 62.641 33.2076 62.641 33.5779V35.0765H61.7627V31.7635H62.5808V32.2501C62.8687 31.8789 63.2307 31.6934 63.6678 31.6934C63.86 31.6934 64.0365 31.728 64.1957 31.7981C64.3549 31.8674 64.4753 31.9565 64.5577 32.0645C64.6394 32.1725 64.6963 32.2946 64.7285 32.4323C64.7606 32.5692 64.7763 32.7655 64.7763 33.0212V35.0765Z" fill="#0067A5"/>
<path fill-rule="evenodd" clip-rule="evenodd" d="M67.5889 33.4896C67.4768 33.5276 67.3003 33.5721 67.0578 33.6241C66.8153 33.676 66.657 33.7263 66.5828 33.7767C66.4681 33.8583 66.4112 33.9606 66.4112 34.0851C66.4112 34.208 66.4574 34.3144 66.5481 34.4035C66.6388 34.4934 66.7551 34.5371 66.8962 34.5371C67.0537 34.5371 67.2038 34.4859 67.3465 34.382C67.452 34.3028 67.5221 34.2055 67.5551 34.0917C67.5774 34.0167 67.5889 33.8748 67.5889 33.6645V33.4896ZM66.4112 32.7812L65.6236 32.6418C65.7127 32.3193 65.8661 32.081 66.0838 31.9259C66.3015 31.7709 66.6257 31.6934 67.0553 31.6934C67.4454 31.6934 67.7366 31.7395 67.9271 31.8319C68.1176 31.9243 68.252 32.0422 68.3304 32.1841C68.4079 32.3268 68.4475 32.5874 68.4475 32.9676L68.4376 33.9894C68.4376 34.2798 68.4508 34.4942 68.4788 34.6327C68.5077 34.7705 68.5597 34.9181 68.6372 35.0765H67.7588C67.7358 35.0187 67.7077 34.9329 67.6747 34.8191C67.6607 34.768 67.65 34.7342 67.6442 34.7169C67.4958 34.8637 67.3366 34.9734 67.1675 35.0468C66.9984 35.1193 66.8178 35.1565 66.6257 35.1565C66.2875 35.1565 66.0211 35.0641 65.8257 34.8785C65.631 34.6938 65.5337 34.4604 65.5337 34.1775C65.5337 33.9903 65.5782 33.8237 65.6673 33.6769C65.7564 33.5301 65.8817 33.4179 66.0426 33.3404C66.2034 33.262 66.436 33.1944 66.7386 33.1367C67.1477 33.0591 67.4314 32.9882 67.5889 32.9206V32.8332C67.5889 32.6633 67.5469 32.5428 67.4636 32.4711C67.3803 32.3985 67.2228 32.3622 66.991 32.3622C66.8343 32.3622 66.7122 32.3936 66.624 32.4546C66.5366 32.5173 66.4657 32.6261 66.4112 32.7812Z" fill="#0067A5"/>
<path fill-rule="evenodd" clip-rule="evenodd" d="M70.9209 31.7637V32.4622H70.3221V33.8C70.3221 34.0705 70.3279 34.228 70.3394 34.2734C70.351 34.3179 70.3765 34.355 70.417 34.3839C70.4574 34.4136 70.5069 34.4284 70.5646 34.4284C70.6454 34.4284 70.7625 34.4004 70.9159 34.3435L70.9811 35.0247C70.779 35.1121 70.5497 35.1567 70.2949 35.1567C70.1374 35.1567 69.9963 35.1294 69.871 35.0767C69.7448 35.0231 69.6524 34.9546 69.5939 34.8705C69.5353 34.7855 69.4949 34.6717 69.4718 34.5282C69.4537 34.4259 69.4438 34.2189 69.4438 33.9088V32.4622H69.0454V31.7637H69.4438V31.1047L70.3221 30.5859V31.7637H70.9209Z" fill="#0067A5"/>
<path fill-rule="evenodd" clip-rule="evenodd" d="M71.6099 35.0771H72.4882V31.7641H71.6099V35.0771ZM71.6099 31.3146H72.4882V30.5063H71.6099V31.3146Z" fill="#0067A5"/>
<path fill-rule="evenodd" clip-rule="evenodd" d="M74.1726 33.425C74.1726 33.7524 74.2501 34.0031 74.406 34.1771C74.5618 34.3503 74.754 34.4378 74.9825 34.4378C75.2109 34.4378 75.4022 34.3503 75.5565 34.1771C75.7115 34.0031 75.7891 33.7499 75.7891 33.4184C75.7891 33.0959 75.7115 32.8477 75.5565 32.6728C75.4022 32.4996 75.2109 32.4122 74.9825 32.4122C74.754 32.4122 74.5618 32.4996 74.406 32.6728C74.2501 32.8477 74.1726 33.0976 74.1726 33.425ZM73.2744 33.3788C73.2744 33.0868 73.3462 32.8048 73.4888 32.5326C73.6324 32.2604 73.8352 32.0526 74.0983 31.9091C74.3606 31.7656 74.6534 31.6938 74.9775 31.6938C75.4781 31.6938 75.888 31.8563 76.2072 32.1821C76.5272 32.507 76.6872 32.9186 76.6872 33.4151C76.6872 33.9174 76.5255 34.3322 76.2031 34.6613C75.8798 34.992 75.474 35.1561 74.9841 35.1561C74.6806 35.1561 74.3919 35.0877 74.1165 34.9508C73.8418 34.813 73.6324 34.6118 73.4888 34.3462C73.3462 34.0815 73.2744 33.7582 73.2744 33.3788Z" fill="#0067A5"/>
<path fill-rule="evenodd" clip-rule="evenodd" d="M80.478 35.0765H79.5996V33.3874C79.5996 33.0303 79.5806 32.7993 79.5444 32.6938C79.5072 32.589 79.4462 32.5074 79.3629 32.4496C79.2788 32.3919 79.179 32.3622 79.0611 32.3622C78.9101 32.3622 78.7749 32.4043 78.6553 32.4868C78.5357 32.5701 78.4532 32.6806 78.4095 32.8175C78.365 32.9544 78.3427 33.2076 78.3427 33.5779V35.0765H77.4644V31.7635H78.2825V32.2501C78.5703 31.8789 78.9324 31.6934 79.3695 31.6934C79.5617 31.6934 79.7382 31.728 79.8973 31.7981C80.0565 31.8674 80.1769 31.9565 80.2594 32.0645C80.3402 32.1725 80.398 32.2946 80.4293 32.4323C80.4615 32.5692 80.478 32.7655 80.478 33.0212V35.0765Z" fill="#0067A5"/>
<path fill-rule="evenodd" clip-rule="evenodd" d="M83.2911 33.4896C83.1789 33.5276 83.0016 33.5721 82.76 33.6241C82.5175 33.676 82.3591 33.7263 82.2841 33.7767C82.1703 33.8583 82.1134 33.9606 82.1134 34.0851C82.1134 34.208 82.1587 34.3144 82.2503 34.4035C82.341 34.4934 82.4573 34.5371 82.5983 34.5371C82.7558 34.5371 82.9059 34.4859 83.0486 34.382C83.1542 34.3028 83.2235 34.2055 83.2565 34.0917C83.2796 34.0167 83.2911 33.8748 83.2911 33.6645V33.4896ZM82.1134 32.7812L81.3249 32.6418C81.414 32.3193 81.5682 32.081 81.7859 31.9259C82.0037 31.7709 82.3278 31.6934 82.7575 31.6934C83.1476 31.6934 83.4387 31.7395 83.6292 31.8319C83.8198 31.9243 83.9542 32.0422 84.0325 32.1841C84.1101 32.3268 84.1497 32.5874 84.1497 32.9676L84.1389 33.9894C84.1389 34.2798 84.153 34.4942 84.1818 34.6327C84.2099 34.7705 84.2618 34.9181 84.3385 35.0765H83.461C83.4379 35.0187 83.4099 34.9329 83.3769 34.8191C83.3629 34.768 83.3521 34.7342 83.3464 34.7169C83.1979 34.8637 83.0387 34.9734 82.8697 35.0468C82.7006 35.1193 82.52 35.1565 82.3278 35.1565C81.9897 35.1565 81.7233 35.0641 81.5278 34.8785C81.3332 34.6938 81.2358 34.4604 81.2358 34.1775C81.2358 33.9903 81.2804 33.8237 81.3694 33.6769C81.4585 33.5301 81.5839 33.4179 81.7447 33.3404C81.9055 33.262 82.1373 33.1944 82.4408 33.1367C82.8499 33.0591 83.1327 32.9882 83.2911 32.9206V32.8332C83.2911 32.6633 83.249 32.5428 83.1657 32.4711C83.0816 32.3985 82.9249 32.3622 82.6932 32.3622C82.5365 32.3622 82.4144 32.3936 82.3261 32.4546C82.2387 32.5173 82.1678 32.6261 82.1134 32.7812Z" fill="#0067A5"/>
<path fill-rule="evenodd" clip-rule="evenodd" d="M84.9683 35.0762H85.8466V30.5063H84.9683V35.0762Z" fill="#0067A5"/>
<path fill-rule="evenodd" clip-rule="evenodd" d="M91.0393 33.2607L90.3985 31.5741L89.7816 33.2607H91.0393ZM92.7284 35.0767H91.7296L91.3345 34.0384H89.497L89.1176 35.0767H88.1387L89.916 30.5068H90.8958L92.7284 35.0767Z" fill="#0067A5"/>
<path fill-rule="evenodd" clip-rule="evenodd" d="M94.8157 31.7637V32.4622H94.217V33.8C94.217 34.0705 94.2219 34.228 94.2335 34.2734C94.245 34.3179 94.2706 34.355 94.3118 34.3839C94.3522 34.4136 94.4017 34.4284 94.4595 34.4284C94.5395 34.4284 94.6574 34.4004 94.8108 34.3435L94.8751 35.0247C94.6739 35.1121 94.4446 35.1567 94.1889 35.1567C94.0322 35.1567 93.8912 35.1294 93.765 35.0767C93.6397 35.0231 93.5473 34.9546 93.4887 34.8705C93.4302 34.7855 93.3889 34.6717 93.3667 34.5282C93.3477 34.4259 93.3386 34.2189 93.3386 33.9088V32.4622H92.9395V31.7637H93.3386V31.1047L94.217 30.5859V31.7637H94.8157Z" fill="#0067A5"/>
<path fill-rule="evenodd" clip-rule="evenodd" d="M96.2033 33.425C96.2033 33.7524 96.2808 34.0031 96.4375 34.1771C96.5934 34.3503 96.7856 34.4378 97.0132 34.4378C97.2417 34.4378 97.433 34.3503 97.5881 34.1771C97.7423 34.0031 97.8198 33.7499 97.8198 33.4184C97.8198 33.0959 97.7423 32.8477 97.5881 32.6728C97.433 32.4996 97.2417 32.4122 97.0132 32.4122C96.7856 32.4122 96.5934 32.4996 96.4375 32.6728C96.2808 32.8477 96.2033 33.0976 96.2033 33.425ZM95.3052 33.3788C95.3052 33.0868 95.3769 32.8048 95.5204 32.5326C95.6631 32.2604 95.8668 32.0526 96.1291 31.9091C96.3914 31.7656 96.685 31.6938 97.0083 31.6938C97.5089 31.6938 97.9188 31.8563 98.238 32.1821C98.558 32.507 98.718 32.9186 98.718 33.4151C98.718 33.9174 98.5563 34.3322 98.2338 34.6613C97.9105 34.992 97.5048 35.1561 97.0149 35.1561C96.7114 35.1561 96.4227 35.0877 96.1481 34.9508C95.8726 34.813 95.6631 34.6118 95.5204 34.3462C95.3769 34.0815 95.3052 33.7582 95.3052 33.3788Z" fill="#0067A5"/>
<path fill-rule="evenodd" clip-rule="evenodd" d="M99.4355 31.764H100.244V32.2159C100.533 31.8679 100.878 31.6938 101.279 31.6938C101.491 31.6938 101.675 31.7376 101.831 31.825C101.988 31.9116 102.116 32.0427 102.216 32.2192C102.362 32.0427 102.519 31.9116 102.688 31.825C102.857 31.7376 103.036 31.6938 103.228 31.6938C103.472 31.6938 103.678 31.7433 103.846 31.8415C104.015 31.9404 104.142 32.0856 104.224 32.2769C104.285 32.418 104.316 32.6464 104.316 32.9623V35.0769H103.437V33.185C103.437 32.8567 103.407 32.6448 103.346 32.5499C103.265 32.4246 103.14 32.3627 102.972 32.3627C102.849 32.3627 102.734 32.3998 102.625 32.4749C102.517 32.5499 102.438 32.6588 102.391 32.804C102.343 32.9483 102.32 33.1759 102.32 33.4877V35.0769H101.441V33.2633C101.441 32.9409 101.425 32.733 101.393 32.6398C101.363 32.5466 101.314 32.4765 101.249 32.4312C101.183 32.3858 101.095 32.3627 100.982 32.3627C100.846 32.3627 100.725 32.399 100.617 32.4716C100.509 32.5442 100.43 32.6489 100.384 32.7866C100.337 32.9235 100.314 33.1503 100.314 33.4687V35.0769H99.4355V31.764Z" fill="#0067A5"/>
<path fill-rule="evenodd" clip-rule="evenodd" d="M105.263 35.0771H106.141V31.7641H105.263V35.0771ZM105.263 31.3146H106.141V30.5063H105.263V31.3146Z" fill="#0067A5"/>
<path fill-rule="evenodd" clip-rule="evenodd" d="M110.03 32.7416L109.162 32.9016C109.133 32.7292 109.067 32.5998 108.965 32.5123C108.861 32.4257 108.727 32.382 108.562 32.382C108.345 32.382 108.171 32.4579 108.04 32.608C107.911 32.7589 107.845 33.0105 107.845 33.3635C107.845 33.756 107.911 34.0332 108.045 34.1948C108.176 34.3565 108.354 34.4381 108.577 34.4381C108.745 34.4381 108.881 34.3894 108.987 34.2946C109.094 34.1981 109.169 34.0332 109.212 33.7989L110.07 33.949C109.981 34.3474 109.809 34.6484 109.556 34.8513C109.303 35.055 108.962 35.1565 108.537 35.1565C108.053 35.1565 107.667 35.0039 107.379 34.6979C107.091 34.3919 106.947 33.9688 106.947 33.4278C106.947 32.881 107.092 32.4554 107.381 32.1511C107.671 31.8459 108.062 31.6934 108.554 31.6934C108.958 31.6934 109.279 31.78 109.517 31.9523C109.756 32.1255 109.927 32.3878 110.03 32.7416Z" fill="#0067A5"/>
<path fill-rule="evenodd" clip-rule="evenodd" d="M112.652 35.0767V30.5068H116.035V31.2846H113.58V32.2932H115.865V33.071H113.58V34.2982H116.124V35.0767H112.652Z" fill="#0067A5"/>
<path fill-rule="evenodd" clip-rule="evenodd" d="M119.994 35.0765H119.116V33.3874C119.116 33.0303 119.097 32.7993 119.06 32.6938C119.023 32.589 118.962 32.5074 118.879 32.4496C118.796 32.3919 118.695 32.3622 118.577 32.3622C118.427 32.3622 118.292 32.4043 118.171 32.4868C118.052 32.5701 117.97 32.6806 117.926 32.8175C117.881 32.9544 117.859 33.2076 117.859 33.5779V35.0765H116.98V31.7635H117.799V32.2501C118.087 31.8789 118.449 31.6934 118.886 31.6934C119.078 31.6934 119.254 31.728 119.413 31.7981C119.573 31.8674 119.693 31.9565 119.776 32.0645C119.856 32.1725 119.914 32.2946 119.946 32.4323C119.978 32.5692 119.994 32.7655 119.994 33.0212V35.0765Z" fill="#0067A5"/>
<path fill-rule="evenodd" clip-rule="evenodd" d="M122.947 33.1404C122.941 32.8864 122.875 32.6934 122.75 32.5607C122.625 32.4287 122.473 32.3627 122.294 32.3627C122.102 32.3627 121.944 32.432 121.819 32.5714C121.695 32.7116 121.633 32.9013 121.635 33.1404H122.947ZM122.887 34.0188L123.765 34.1681C123.653 34.4905 123.475 34.7355 123.234 34.9037C122.991 35.072 122.69 35.1561 122.326 35.1561C121.751 35.1561 121.325 34.9681 121.048 34.592C120.831 34.2901 120.722 33.9099 120.722 33.4497C120.722 32.9013 120.865 32.4708 121.152 32.1598C121.439 31.8489 121.801 31.6938 122.24 31.6938C122.733 31.6938 123.122 31.8563 123.407 32.1821C123.691 32.5087 123.828 33.0068 123.815 33.679H121.62C121.626 33.938 121.696 34.1392 121.83 34.2827C121.965 34.4262 122.132 34.498 122.332 34.498C122.468 34.498 122.583 34.46 122.676 34.3842C122.77 34.3083 122.84 34.187 122.887 34.0188Z" fill="#0067A5"/>
<path fill-rule="evenodd" clip-rule="evenodd" d="M125.46 35.0765H124.582V31.7635H125.4V32.2344C125.54 32.0117 125.664 31.8666 125.775 31.7973C125.886 31.728 126.011 31.6934 126.152 31.6934C126.351 31.6934 126.543 31.7494 126.727 31.86L126.453 32.6253C126.307 32.5296 126.17 32.4818 126.043 32.4818C125.921 32.4818 125.818 32.5156 125.733 32.5833C125.648 32.6501 125.582 32.7729 125.533 32.9486C125.484 33.1251 125.46 33.4946 125.46 34.0562V35.0765Z" fill="#0067A5"/>
<path fill-rule="evenodd" clip-rule="evenodd" d="M127.758 33.3527C127.758 33.7041 127.826 33.9606 127.963 34.1239C128.099 34.2863 128.268 34.368 128.468 34.368C128.683 34.368 128.864 34.2847 129.012 34.1173C129.16 33.9507 129.235 33.7024 129.235 33.3742C129.235 33.0319 129.163 32.7779 129.022 32.6121C128.88 32.4455 128.701 32.3622 128.484 32.3622C128.273 32.3622 128.099 32.4439 127.963 32.6072C127.826 32.7705 127.758 33.0187 127.758 33.3527ZM126.97 35.3057L127.967 35.4154C127.984 35.5375 128.023 35.6216 128.085 35.667C128.169 35.7329 128.302 35.7651 128.484 35.7651C128.716 35.7651 128.89 35.7305 129.006 35.6612C129.084 35.6142 129.143 35.54 129.183 35.4369C129.211 35.3635 129.224 35.2274 129.224 35.0294L129.228 34.5404C128.964 34.8975 128.631 35.0765 128.23 35.0765C127.782 35.0765 127.428 34.8884 127.167 34.5132C126.962 34.2162 126.86 33.8459 126.86 33.4039C126.86 32.8496 126.993 32.4266 127.263 32.1329C127.53 31.8402 127.865 31.6934 128.264 31.6934C128.676 31.6934 129.016 31.8732 129.285 32.2319V31.7643H130.103V34.7449C130.103 35.1367 130.071 35.4294 130.005 35.6233C129.941 35.8179 129.85 35.9696 129.732 36.0802C129.616 36.1907 129.459 36.2773 129.264 36.34C129.069 36.4026 128.821 36.434 128.522 36.434C127.958 36.434 127.557 36.3375 127.321 36.1453C127.084 35.9523 126.966 35.7074 126.966 35.4121C126.966 35.3833 126.967 35.3478 126.97 35.3057Z" fill="#0067A5"/>
<path fill-rule="evenodd" clip-rule="evenodd" d="M130.641 31.7637H131.568L132.362 34.1158L133.135 31.7637H134.044L132.879 34.9513L132.665 35.5377C132.588 35.7323 132.514 35.88 132.445 35.9822C132.376 36.0845 132.296 36.1678 132.205 36.2313C132.115 36.2948 132.004 36.3443 131.872 36.3806C131.74 36.4152 131.592 36.4334 131.426 36.4334C131.257 36.4334 131.092 36.4152 130.93 36.3806L130.85 35.6936C130.987 35.7216 131.111 35.7348 131.221 35.7348C131.426 35.7348 131.576 35.6738 131.673 35.5525C131.771 35.4305 131.846 35.2746 131.898 35.0866L130.641 31.7637Z" fill="#0067A5"/>
<path fill-rule="evenodd" clip-rule="evenodd" d="M138.897 33.2607L138.256 31.5741L137.639 33.2607H138.897ZM140.586 35.0767H139.588L139.192 34.0384H137.355L136.976 35.0767H135.997L137.774 30.5068H138.754L140.586 35.0767Z" fill="#0067A5"/>
<path fill-rule="evenodd" clip-rule="evenodd" d="M141.845 33.3527C141.845 33.7041 141.914 33.9606 142.05 34.1239C142.187 34.2863 142.355 34.368 142.556 34.368C142.771 34.368 142.952 34.2847 143.1 34.1173C143.248 33.9507 143.323 33.7024 143.323 33.3742C143.323 33.0319 143.251 32.7779 143.11 32.6121C142.968 32.4455 142.788 32.3622 142.571 32.3622C142.361 32.3622 142.187 32.4439 142.05 32.6072C141.914 32.7705 141.845 33.0187 141.845 33.3527ZM141.057 35.3057L142.055 35.4154C142.072 35.5375 142.111 35.6216 142.172 35.667C142.257 35.7329 142.389 35.7651 142.571 35.7651C142.804 35.7651 142.978 35.7305 143.093 35.6612C143.172 35.6142 143.231 35.54 143.271 35.4369C143.299 35.3635 143.312 35.2274 143.312 35.0294L143.315 34.5404C143.051 34.8975 142.718 35.0765 142.317 35.0765C141.869 35.0765 141.516 34.8884 141.254 34.5132C141.05 34.2162 140.947 33.8459 140.947 33.4039C140.947 32.8496 141.082 32.4266 141.351 32.1329C141.619 31.8402 141.953 31.6934 142.352 31.6934C142.763 31.6934 143.103 31.8732 143.372 32.2319V31.7643H144.19V34.7449C144.19 35.1367 144.158 35.4294 144.093 35.6233C144.029 35.8179 143.937 35.9696 143.82 36.0802C143.704 36.1907 143.547 36.2773 143.351 36.34C143.156 36.4026 142.909 36.434 142.609 36.434C142.045 36.434 141.644 36.3375 141.408 36.1453C141.172 35.9523 141.054 35.7074 141.054 35.4121C141.054 35.3833 141.054 35.3478 141.057 35.3057Z" fill="#0067A5"/>
<path fill-rule="evenodd" clip-rule="evenodd" d="M147.112 33.1404C147.107 32.8864 147.041 32.6934 146.916 32.5607C146.791 32.4287 146.639 32.3627 146.46 32.3627C146.269 32.3627 146.11 32.432 145.986 32.5714C145.86 32.7116 145.799 32.9013 145.801 33.1404H147.112ZM147.053 34.0188L147.931 34.1681C147.818 34.4905 147.642 34.7355 147.4 34.9037C147.159 35.072 146.855 35.1561 146.492 35.1561C145.916 35.1561 145.491 34.9681 145.215 34.592C144.997 34.2901 144.887 33.9099 144.887 33.4497C144.887 32.9013 145.031 32.4708 145.318 32.1598C145.605 31.8489 145.968 31.6938 146.406 31.6938C146.899 31.6938 147.288 31.8563 147.573 32.1821C147.857 32.5087 147.993 33.0068 147.981 33.679H145.785C145.791 33.938 145.862 34.1392 145.996 34.2827C146.13 34.4262 146.298 34.498 146.498 34.498C146.635 34.498 146.749 34.46 146.842 34.3842C146.935 34.3083 147.005 34.187 147.053 34.0188Z" fill="#0067A5"/>
<path fill-rule="evenodd" clip-rule="evenodd" d="M151.792 35.0765H150.914V33.3874C150.914 33.0303 150.895 32.7993 150.858 32.6938C150.821 32.589 150.761 32.5074 150.677 32.4496C150.593 32.3919 150.493 32.3622 150.376 32.3622C150.225 32.3622 150.089 32.4043 149.969 32.4868C149.849 32.5701 149.767 32.6806 149.723 32.8175C149.679 32.9544 149.657 33.2076 149.657 33.5779V35.0765H148.779V31.7635H149.597V32.2501C149.884 31.8789 150.247 31.6934 150.683 31.6934C150.876 31.6934 151.052 31.728 151.211 31.7981C151.371 31.8674 151.491 31.9565 151.573 32.0645C151.655 32.1725 151.712 32.2946 151.744 32.4323C151.776 32.5692 151.792 32.7655 151.792 33.0212V35.0765Z" fill="#0067A5"/>
<path fill-rule="evenodd" clip-rule="evenodd" d="M155.673 32.7416L154.804 32.9016C154.775 32.7292 154.708 32.5998 154.606 32.5123C154.503 32.4257 154.369 32.382 154.205 32.382C153.987 32.382 153.812 32.4579 153.682 32.608C153.552 32.7589 153.487 33.0105 153.487 33.3635C153.487 33.756 153.553 34.0332 153.686 34.1948C153.819 34.3565 153.996 34.4381 154.219 34.4381C154.386 34.4381 154.523 34.3894 154.629 34.2946C154.735 34.1981 154.811 34.0332 154.854 33.7989L155.712 33.949C155.623 34.3474 155.452 34.6484 155.198 34.8513C154.944 35.055 154.605 35.1565 154.179 35.1565C153.695 35.1565 153.309 35.0039 153.02 34.6979C152.733 34.3919 152.589 33.9688 152.589 33.4278C152.589 32.881 152.734 32.4554 153.023 32.1511C153.312 31.8459 153.704 31.6934 154.196 31.6934C154.6 31.6934 154.921 31.78 155.16 31.9523C155.397 32.1255 155.568 32.3878 155.673 32.7416Z" fill="#0067A5"/>
<path fill-rule="evenodd" clip-rule="evenodd" d="M156.001 31.7637H156.929L157.722 34.1158L158.496 31.7637H159.404L158.239 34.9513L158.025 35.5377C157.948 35.7323 157.875 35.88 157.806 35.9822C157.736 36.0845 157.656 36.1678 157.566 36.2313C157.475 36.2948 157.364 36.3443 157.232 36.3806C157.1 36.4152 156.952 36.4334 156.785 36.4334C156.618 36.4334 156.452 36.4152 156.29 36.3806L156.21 35.6936C156.347 35.7216 156.472 35.7348 156.582 35.7348C156.785 35.7348 156.936 35.6738 157.034 35.5525C157.132 35.4305 157.207 35.2746 157.259 35.0866L156.001 31.7637Z" fill="#0067A5"/>
</g>
<path fill-rule="evenodd" clip-rule="evenodd" d="M14.0646 32.3359C14.1067 32.3243 14.1661 32.2385 14.1776 32.1924C13.7075 32.1239 13.235 31.5235 13.1038 31.3561C12.9727 31.1895 12.675 30.4084 11.936 29.4352C11.0502 28.2682 9.88815 26.9948 8.98259 26.1816C9.29929 27.3775 9.48733 28.599 10.0919 29.6843C10.618 30.6278 11.1261 31.3396 12.5051 31.8666C11.3801 31.5152 10.7945 31.366 9.78836 31.1392C8.64856 30.9552 6.47372 30.2732 6.16692 30.1445C5.83619 30.0051 4.77393 29.4938 4.77393 29.4938C5.57805 30.9058 7.0865 32.1346 8.66176 32.6798C10.435 33.3396 12.3484 32.6509 14.0646 32.3359Z" fill="#0067A5"/>
<path fill-rule="evenodd" clip-rule="evenodd" d="M9.3944 30.3882C9.3944 30.3882 9.48347 30.3767 9.53378 30.3569C9.36554 30.0418 9.241 29.8546 9.11234 29.3251C8.9243 28.5548 8.78327 27.0571 8.40718 26.1161C7.67646 24.2843 6.43028 22.5317 6.43028 22.5317C6.71234 25.0686 6.22904 27.1379 8.49626 29.6303C8.2711 29.4934 8.19852 29.4728 7.73584 28.954C6.41378 27.4695 4.21667 26.4344 2.92182 24.9375C2.58368 24.6216 2.38657 24.1062 1.99316 23.848C2.30244 25.1676 2.96389 26.6785 3.78038 27.7392C5.0711 29.401 6.62162 29.8216 8.21914 30.0699C8.93502 30.1812 9.06945 30.2893 9.3944 30.3882Z" fill="#0067A5"/>
<path fill-rule="evenodd" clip-rule="evenodd" d="M5.9608 26.4004C5.99874 26.4078 6.06555 26.4152 6.12988 26.3715C5.9641 25.9105 5.76534 25.2853 5.78678 24.8226C5.8239 24.0482 5.94019 23.0527 5.95503 22.0078C5.97565 20.6189 5.82885 19.1369 5.20122 17.9121C4.77895 19.7183 4.3707 21.8849 4.84905 23.7769C4.99008 24.2354 5.16658 24.5645 5.22266 25.0239C4.82761 24.27 4.0606 22.8969 3.38431 22.1496C2.6808 21.3736 2.2272 20.9323 1.73648 20.2263C1.09153 19.2977 0.801217 18.5298 0.801217 18.5298C0.801217 18.5298 0.753382 19.1434 0.895238 19.9212C1.00245 20.515 1.38678 21.5533 1.60534 22.0366C2.39379 24.0152 3.97565 24.51 5.9608 26.4004Z" fill="#0067A5"/>
<mask id="mask1" style="mask-type:alpha" maskUnits="userSpaceOnUse" x="0" y="12" width="6" height="10">
<path fill-rule="evenodd" clip-rule="evenodd" d="M0.442871 12.9067H5.28088V21.6111H0.442871V12.9067Z" fill="white"/>
</mask>
<g mask="url(#mask1)">
<path fill-rule="evenodd" clip-rule="evenodd" d="M3.62507 21.6111H3.7661C3.65311 21.2671 3.65311 20.7509 3.7661 20.3781C4.25764 19.3669 4.68486 18.2041 4.95455 17.1806C5.17146 16.3253 5.27373 15.6012 5.2795 15.1344C5.28445 14.6742 5.27785 14.4589 5.23167 14.2692C5.23167 14.2692 2.90094 17.3942 3.2028 19.9764C2.8094 17.8263 2.19084 16.5274 1.26218 14.6065C1.09393 14.2618 0.834139 13.348 0.700531 12.9067C0.477026 14.0803 0.268366 14.75 0.60651 16.3987C0.753314 17.1146 1.11538 17.903 1.5896 18.6659C2.20981 19.6614 3.06672 20.6041 3.62507 21.6111Z" fill="#0067A5"/>
</g>
</svg>
